<?xml version="1.0" standalone="no"?>
<!DOCTYPE svg PUBLIC "-//W3C//DTD SVG 1.1//EN" "http://www.w3.org/Graphics/SVG/1.1/DTD/svg11.dtd" >
<svg xmlns="http://www.w3.org/2000/svg" xmlns:xlink="http://www.w3.org/1999/xlink" version="1.1">
<metadata>
Created by FontForge 20161003 at Mon Feb  4 22:12:42 2019
 By www-data
Copyright (c) 1991, 1996, 1998, 1999 Adobe Systems Incorporated.  All Rights Reserved.Formata is either a registered trademark or trademark of Berthold Types Limited in the United States and/or other countries.
</metadata>
<defs>
<font id="formataregular" horiz-adv-x="583" >
  <font-face 
    font-family="formataregular"
    font-weight="400"
    font-stretch="normal"
    units-per-em="1000"
    panose-1="2 11 5 0 0 0 0 0 0 0"
    ascent="750"
    descent="-250"
    x-height="522"
    cap-height="709"
    bbox="-115 -250 1285 960"
    underline-thickness="50"
    underline-position="-150"
    unicode-range="U+0020-FB02"
  />
<missing-glyph horiz-adv-x="292" 
 />
    <glyph glyph-name=".notdef" horiz-adv-x="292" 
 />
    <glyph glyph-name=".null" horiz-adv-x="0" 
 />
    <glyph glyph-name="nonmarkingreturn" horiz-adv-x="333" 
 />
    <glyph glyph-name="space" unicode=" " horiz-adv-x="292" 
 />
    <glyph glyph-name="space" unicode="&#xa0;" horiz-adv-x="292" 
 />
    <glyph glyph-name="exclam" unicode="!" horiz-adv-x="271" 
d="M205 225l-5 -7q-44 -1 -80 -4l-6 8q3 282 -14 537l6 7q60 0 119 2l6 -7q-26 -291 -26 -536zM215 122l8 -8q0 -62 1 -103l-7 -9q-59 -2 -111 -5l-7 8q1 17 1 53q0 34 -1 51l8 9q67 1 108 4z" />
    <glyph glyph-name="quotedbl" unicode="&#x22;" horiz-adv-x="396" 
d="M343 690l-40 -256h-23l-39 244q-1 7 -1 19q0 26 16.5 39t37.5 13q31 0 44 -23q7 -11 5 -36zM156 690l-41 -256h-23l-39 244q0 4 -0.5 10t-0.5 9q0 26 17 39t38 13q30 0 43 -23q6 -10 6 -36z" />
    <glyph glyph-name="numbersign" unicode="#" horiz-adv-x="667" 
d="M450 229l-33 -229h-79l33 229h-111l-33 -229h-81l35 229h-139v77h149l16 108h-142v77h152l31 214h80l-31 -214h110l32 214h78l-30 -214h138v-77h-148l-16 -108h139v-77h-150zM270 306h112l15 108h-111z" />
    <glyph glyph-name="dollar" unicode="$" horiz-adv-x="479" 
d="M164 -86l-5 -6q-36 2 -50 1l-5 6q9 30 23 84q-55 12 -99 37l-4 8l19 76l7 3q45 -34 97 -46l59 241l-13 8q-29 17 -45 27t-39.5 29t-35.5 36.5t-21.5 43.5t-9.5 56q0 37 15 70q16 35 52 61q55 40 153 40q7 0 33 -2q7 38 14 75l7 4h53l4 -6q-14 -42 -23 -82q44 -10 93 -35
l4 -8q-14 -60 -16 -73l-8 -2q-43 32 -90 46l-54 -221q9 -5 28 -15.5t32 -18t18 -11.5q98 -64 98 -160q0 -76 -58.5 -133.5t-164.5 -57.5q-28 0 -52 3q-9 -39 -16 -78zM254 291l-54 -224q12 -1 24 -1q61 0 97 30.5t36 76.5q0 22 -7 38.5t-24 31.5t-30.5 23.5t-41.5 24.5z
M229 414l51 201q-5 0 -13.5 0.5t-12.5 0.5q-50 0 -82.5 -24.5t-32.5 -64.5q0 -20 6 -35.5t22 -30.5t26 -22.5t36 -24.5z" />
    <glyph glyph-name="percent" unicode="%" horiz-adv-x="917" 
d="M889 222q0 -25 -1.5 -46t-11 -57.5t-26 -61.5t-51 -44.5t-82.5 -19.5q-40 0 -70.5 13t-48 36.5t-28.5 46t-15 53t-5 45t-1 33.5q0 83 25 135q44 93 148 93q34 0 61.5 -11t44.5 -26.5t29.5 -39.5t18.5 -43t9 -44t3.5 -36.5t0.5 -25.5zM811 223q0 33 -3.5 57.5t-12 52
t-27.5 42.5t-47 15q-93 0 -93 -173q0 -165 92 -165q51 0 71 47q20 43 20 124zM368 457q0 -25 -1.5 -45t-11 -57t-26 -62t-51 -44.5t-82.5 -19.5q-168 0 -168 226q0 84 25 136q43 93 148 93q40 0 70.5 -13.5t47.5 -37.5t28 -47t15 -53.5t5 -44.5t1 -31zM290 458
q0 33 -3.5 58.5t-12 52.5t-27.5 42t-47 15q-93 0 -93 -174q0 -164 92 -164q91 0 91 170zM359 5l-6 -5q-38 0 -69 1l-4 5q63 140 142 326q58 127 138 340l6 5h67l4 -5q-3 -8 -20.5 -47.5t-34 -76.5t-21.5 -49q-85 -195 -202 -494z" />
    <glyph glyph-name="ampersand" unicode="&#x26;" horiz-adv-x="604" 
d="M598 8l-4 -9q-6 0 -20 0.5t-21 0.5q-1 0 -16 -0.5t-26 -0.5q-36 -2 -41 -2l-8 5q-28 43 -45 66q-92 -77 -191 -77q-89 0 -139 52.5t-50 124.5q0 37 11 66.5t36.5 54t44 38t55.5 37.5q-74 92 -74 167q0 64 46.5 111t125.5 47q75 0 119.5 -43t44.5 -106q0 -34 -13 -64.5
t-38 -54t-41.5 -36t-41.5 -28.5l122 -153q37 51 67 134l7 1q26 -36 54 -67l1 -9q-28 -61 -79 -124q16 -22 53.5 -65t60.5 -66zM266 418q29 20 44.5 32t31.5 37t16 52q0 35 -22.5 57t-55.5 22q-32 0 -54 -21t-22 -56q0 -51 62 -123zM371 128l-138 175q-47 -32 -71 -61.5
t-24 -68.5q0 -42 29.5 -71t75.5 -29q66 0 128 55z" />
    <glyph glyph-name="quotesingle" unicode="'" horiz-adv-x="208" 
d="M156 690l-41 -256h-23l-39 244q0 4 -0.5 10t-0.5 9q0 26 17 39t38 13q30 0 43 -23q6 -10 6 -36z" />
    <glyph glyph-name="parenleft" unicode="(" horiz-adv-x="396" 
d="M396 -207l-3 -8q-21 0 -32 -1q-12 0 -38 -2l-8 3q-62 57 -106 120q-128 178 -128 366q0 80 20.5 154.5t59 136.5t75 106.5t84.5 92.5l9 3q32 0 71 1l3 -9q-87 -85 -149.5 -211t-62.5 -278q0 -121 49 -245.5t156 -228.5z" />
    <glyph glyph-name="parenright" unicode=")" horiz-adv-x="396" 
d="M0 754l3 8q21 0 32 1q7 1 19.5 1t18.5 1l8 -3q59 -55 107 -120q127 -179 127 -366q0 -80 -20.5 -153.5t-58 -135t-74.5 -106.5t-86 -94l-9 -4q-32 0 -71 -1l-3 9q52 51 96 114.5t80 165.5t36 209q0 121 -49 245.5t-156 228.5z" />
    <glyph glyph-name="asterisk" unicode="*" horiz-adv-x="437" 
d="M407 505l3 -8q-9 -17 -19.5 -35t-17.5 -31h-10q-70 56 -118 92q7 -63 20 -151l-6 -8q-37 1 -79 0l-6 7q11 70 23 150q-76 -54 -123 -90h-8q-24 40 -39 63l2 9q41 16 143 61q-59 26 -142 61l-2 8q17 27 37 63l8 1q80 -59 121 -89q-9 87 -19 150l6 7q42 0 77 2l5 -7
q-10 -79 -17 -152q55 40 118 90l9 -1q14 -26 36 -63l-3 -9q-39 -19 -130 -64q51 -22 131 -56z" />
    <glyph glyph-name="plus" unicode="+" horiz-adv-x="667" 
d="M372 251v-251h-80v251h-249v80h249v249h80v-249h251v-80h-251z" />
    <glyph glyph-name="comma" unicode="," horiz-adv-x="229" 
d="M186 119l4 -8q-44 -107 -93 -253l-7 -7q-35 0 -71 -2l-4 6q40 166 53 253l6 7q64 1 112 4z" />
    <glyph glyph-name="hyphen" unicode="-" horiz-adv-x="333" 
d="M299 326l5 -6q-5 -53 -6 -75l-6 -6q-56 2 -100 2q-51 0 -157 -2l-6 8q5 35 6 71l7 7q108 -2 164 -2q42 0 93 3z" />
    <glyph glyph-name="hyphen" unicode="&#xad;" horiz-adv-x="333" 
d="M299 326l5 -6q-5 -53 -6 -75l-6 -6q-56 2 -100 2q-51 0 -157 -2l-6 8q5 35 6 71l7 7q108 -2 164 -2q42 0 93 3z" />
    <glyph glyph-name="period" unicode="." horiz-adv-x="229" 
d="M168 122l9 -8q-1 -55 0 -103l-7 -9q-59 -2 -111 -5l-7 8q1 17 1 53q0 34 -1 51l8 9q67 1 108 4z" />
    <glyph glyph-name="slash" unicode="/" horiz-adv-x="458" 
d="M92 -134l-8 -8q-78 2 -89 2l-4 7q6 12 16 36q11 25 54 123.5t80.5 185.5t39.5 90q162 396 184 456l8 6h41q40 1 44 1l6 -8q-35 -83 -101 -231q-132 -304 -271 -660z" />
    <glyph glyph-name="zero" unicode="0" 
d="M110 64q-73 85 -73 272q0 130 37 210q66 141 222 141q43 0 81 -13q169 -56 169 -335q0 -188 -77 -276q-66 -74 -181 -74q-113 0 -178 75zM391 562q-37 48 -96 48q-33 0 -58.5 -14.5t-40 -38t-20.5 -37.5t-10 -29q-19 -68 -19 -160q0 -76 15 -139q32 -125 131 -125
q80 0 114 78q30 65 30 196q0 44 -4 79q-9 98 -42 142z" />
    <glyph glyph-name="one" unicode="1" 
d="M366 6l-6 -6q-56 0 -107 -3l-6 7q2 117 5 386v68v79v59q-53 -9 -98 -18l-8 6q4 39 5 70l6 7q100 12 202 27l8 -5q-8 -108 -8 -378q0 -210 7 -299z" />
    <glyph glyph-name="two" unicode="2" 
d="M520 89l5 -7q-2 -38 -2 -78l-5 -5l-38 1q-293 0 -443 -3l-4 10q143 149 243 260q33 36 53 60t41.5 66.5t21.5 77.5q0 54 -38 92.5t-108 38.5q-49 0 -94 -20t-85 -62l-8 4q1 37 1 93l6 8q41 33 100 49q52 13 100 13q109 0 172 -59t63 -144q0 -75 -52 -151t-172 -196
l-56 -56h99q51 1 200 8z" />
    <glyph glyph-name="three" unicode="3" 
d="M69 672l5 6h294q59 0 127 2l4 -7q-9 -12 -88 -125.5t-95 -137.5q56 -2 97.5 -22.5t62 -51.5t30 -61.5t9.5 -59.5q0 -48 -21 -93q-64 -132 -257 -132q-108 0 -179 42l-5 7q4 68 5 84l8 4q72 -61 166 -61q78 0 125 40t47 102q0 61 -44 98q-42 37 -120 37q-34 0 -81 -14
l-6 7q135 177 186 260q-159 0 -267 -3l-6 6q3 35 3 73z" />
    <glyph glyph-name="four" unicode="4" 
d="M542 182l-5 -5q-33 2 -86 2q-1 -70 2 -174l-5 -6q-52 0 -95 -2l-6 6q2 67 4 176q-98 0 -168.5 -0.5t-104.5 -0.5h-43l-5 6q0 7 2 65l3 8q159 237 262 417l7 5q46 -1 145 1l5 -6q-3 -140 -3 -344v-72q47 0 91 2l6 -6q-5 -52 -6 -72zM134 257h219l4 362z" />
    <glyph glyph-name="five" unicode="5" 
d="M80 16l-15 7l-5 7l4 84l9 4q66 -48 152 -48q85 0 133 44t48 108q0 65 -46 107.5t-127 42.5q-70 0 -144 -37l-7 5q15 221 16 331l7 7q89 0 355 2l6 -6q-1 -15 -2 -37.5t-2 -36.5l-6 -6q-40 2 -105 2q-94 0 -158 -1l-8 -146q40 7 72 7q105 0 170 -50q41 -31 64 -77.5
t23 -98.5q0 -43 -16.5 -84.5t-49.5 -77t-89 -57t-128 -21.5q-79 0 -151 26z" />
    <glyph glyph-name="six" unicode="6" 
d="M505 570l-9 -5q-61 44 -131 44q-51 0 -91 -20q-73 -37 -100 -136q-14 -51 -14 -99l11 14q61 65 161 65q90 0 151.5 -57t61.5 -157q0 -103 -64 -166t-168 -63q-68 0 -123 28t-88 78q-52 81 -52 215q0 39 7 95q18 125 88 199q81 82 212 82q80 0 147 -28l5 -6q-4 -44 -4 -83
zM165 258v-24q2 -64 40.5 -113t106.5 -49q54 0 91 37t37 103q0 67 -37 101.5t-93 34.5q-42 0 -77 -18.5t-55 -49.5q-2 -3 -13 -22z" />
    <glyph glyph-name="seven" unicode="7" 
d="M533 680l4 -8q-197 -465 -246 -637q-6 -20 -8 -30l-7 -5q-68 0 -125 -3l-5 7q47 95 132.5 290.5t124.5 301.5q-240 0 -351 -4l-5 6q5 60 6 74l6 5q206 -3 474 3z" />
    <glyph glyph-name="eight" unicode="8" 
d="M416 369q58 -18 89 -59q36 -48 36 -114q0 -96 -74 -154q-66 -52 -179 -52q-120 0 -183 59.5t-63 145.5q0 43 13 76t36 52.5t37 27.5t33 16q-95 47 -95 143q0 87 72 137q59 41 158 41q107 0 164 -51t57 -123q0 -98 -101 -145zM414 515q-3 37 -35 65.5t-86 28.5
q-58 0 -91 -30.5t-33 -75.5q0 -46 33.5 -74t90.5 -28q48 0 77.5 21.5t37.5 45.5t6 47zM430 197q0 55 -36.5 91.5t-100.5 36.5t-102.5 -35.5t-38.5 -93.5q0 -57 37 -92.5t103 -35.5q65 0 101.5 36.5t36.5 92.5z" />
    <glyph glyph-name="nine" unicode="9" 
d="M81 107l8 5q61 -44 132 -44q51 0 91 20q73 37 100 135q12 44 14 101q-18 -21 -24 -25q-57 -54 -149 -54q-91 0 -152 58t-61 154q0 99 64 165t175 66q66 0 118 -26q57 -29 89 -80q49 -77 49 -218q0 -46 -6 -93q-19 -127 -89 -198q-82 -83 -207 -83q-72 0 -151 29l-4 7
q2 36 3 81zM420 420l1 24q0 22 -7 47t-22 52.5t-45 45t-70 17.5q-57 0 -94.5 -38.5t-37.5 -101.5q0 -65 36.5 -100.5t94.5 -35.5q42 0 77 18.5t55 49.5q6 9 12 22z" />
    <glyph glyph-name="colon" unicode=":" horiz-adv-x="271" 
d="M210 529l8 -9q-1 -33 1 -103l-7 -8q-20 -1 -51 -2.5t-60 -2.5l-7 8q0 8 0.5 26t0.5 26q0 9 -0.5 26.5t-0.5 25.5l8 9q47 0 108 4zM210 122l8 -8q-1 -33 1 -103l-7 -9q-59 -2 -111 -5l-7 8q0 8 0.5 26t0.5 27q0 8 -0.5 25t-0.5 26l8 9q66 1 108 4z" />
    <glyph glyph-name="semicolon" unicode=";" horiz-adv-x="271" 
d="M228 119l4 -8q-44 -107 -93 -253l-7 -7q-35 0 -71 -2l-4 6q43 175 53 253l6 7q64 1 112 4zM228 529l8 -9q-1 -57 1 -103l-7 -8q-22 -1 -52.5 -2.5t-59.5 -2.5l-6 8q0 8 0.5 26t0.5 26q0 9 -0.5 26.5t-0.5 25.5l7 9q48 0 109 4z" />
    <glyph glyph-name="less" unicode="&#x3c;" horiz-adv-x="667" 
d="M667 83v-86l-667 313v86l667 313v-86l-567 -270z" />
    <glyph glyph-name="equal" unicode="=" horiz-adv-x="667" 
d="M667 241v-79h-667v79h667zM667 421v-79h-667v79h667z" />
    <glyph glyph-name="greater" unicode="&#x3e;" horiz-adv-x="667" 
d="M667 310l-667 -313v86l567 270l-567 270v86l667 -313v-86z" />
    <glyph glyph-name="question" unicode="?" horiz-adv-x="417" 
d="M238 215l-6 -8q-52 0 -87 -2l-7 6q4 46 16.5 78.5t39.5 77.5l22 34q58 95 58 158q0 59 -34.5 89.5t-85.5 30.5q-30 0 -59 -11t-40.5 -19t-31.5 -24l-9 3q1 12 7 92l5 7q66 41 152 41q95 0 151 -53.5t56 -141.5q0 -79 -59 -170l-28 -43q-53 -78 -60 -145zM241 122l8 -8
q-1 -55 0 -103l-7 -9q-63 -2 -111 -5l-7 8q1 17 1 53q0 34 -1 51l8 9q67 1 109 4z" />
    <glyph glyph-name="at" unicode="@" horiz-adv-x="896" 
d="M787 76l32 -40q-163 -160 -365 -160q-66 0 -130 19t-123 59t-95.5 113t-36.5 169q0 121 57 229t164.5 177.5t240.5 69.5q135 0 215.5 -79.5t80.5 -210.5q0 -124 -62 -229q-36 -60 -81.5 -91.5t-86.5 -31.5q-21 0 -40 8q-14 6 -23 15.5t-13.5 22.5t-5.5 19.5t-2 19.5
q-62 -84 -144 -84q-53 0 -91.5 40t-38.5 121q0 113 63.5 199t147.5 86q28 0 49 -8.5t34.5 -25t19 -26t12.5 -24.5l15 62h68l-33 -150q-28 -139 -28 -173q0 -23 9.5 -33t20.5 -10q46 0 99 90.5t53 201.5q0 107 -65 171.5t-182 64.5q-159 0 -278 -125.5t-119 -296.5
q0 -81 30 -142.5t80 -95t104.5 -50t111.5 -16.5q184 0 336 145zM541 348v-1q1 52 -24.5 79t-58.5 27q-60 0 -100 -69t-40 -146q0 -32 9 -54.5t23 -32t25 -13t21 -3.5q57 0 100 64t45 149z" />
    <glyph glyph-name="A" unicode="A" horiz-adv-x="604" 
d="M390 703l5 -18q55 -183 101 -329q89 -276 111 -346l-4 -8q-54 -1 -116 -4l-7 7q-23 85 -59 211q-20 0 -59.5 0.5t-59.5 0.5q-22 0 -66 -0.5t-64 -0.5q-25 -82 -59 -207l-7 -7q-53 0 -103 -3l-4 7q3 11 11 31q57 162 111 324q82 241 111 338l8 7q83 1 143 4zM302 634
l-105 -338q16 0 48 -0.5t48 -0.5q17 0 52 0.5t53 0.5z" />
    <glyph glyph-name="B" unicode="B" horiz-adv-x="625" 
d="M258 -2l-176 -1l-5 7q3 72 3 185q0 21 0.5 148t0.5 151q0 120 -7 211l5 7l134 2q20 1 78 1q119 0 172 -31q79 -45 79 -137q0 -19 -4.5 -37.5t-17.5 -46t-45.5 -50.5t-81.5 -35q57 -2 92 -18q95 -42 95 -151q0 -67 -37.5 -115t-99.5 -71q-53 -19 -185 -19zM214 321l-24 -1
q0 -131 4 -240h19q138 0 175 15q36 13 55.5 42.5t19.5 67.5q0 118 -177 118q-18 0 -72 -2zM190 626v-222q82 -1 127 5t74 28q41 34 41 87q0 41 -28 71q-35 34 -120 34q-48 0 -94 -3z" />
    <glyph glyph-name="C" unicode="C" horiz-adv-x="625" 
d="M593 139l7 -4q-5 -55 -7 -99l-6 -7q-85 -44 -189 -44q-163 0 -255.5 99.5t-92.5 268.5q0 166 91 265q94 103 264 103q95 0 183 -32l4 -8q-6 -40 -9 -89l-9 -4q-69 45 -159 45q-118 0 -182.5 -75t-64.5 -203q0 -136 66 -206.5t175 -70.5q98 0 184 61z" />
    <glyph glyph-name="D" unicode="D" horiz-adv-x="708" 
d="M149 -2l-67 -1l-5 7q4 108 4 259q0 301 -9 436l6 7l147 3q75 1 115.5 0t94.5 -13t93 -37q131 -84 131 -288q0 -93 -27 -163q-70 -184 -296 -206q-39 -4 -187 -4zM193 82q33 -2 66.5 -0.5t64 4t59.5 12.5t53.5 26t45.5 43t36 64q24 62 24 148q0 137 -73 200
q-59 50 -179 50q-29 0 -97 -2q-3 -95 -3 -249q0 -160 3 -296z" />
    <glyph glyph-name="E" unicode="E" horiz-adv-x="542" 
d="M501 89l6 -7q-2 -20 -5 -75l-7 -7q-131 0 -416 -3l-5 7q6 158 6 316q0 264 -7 379l6 7q270 1 420 3l6 -7q-6 -60 -7 -78l-6 -7q-114 4 -299 5q-3 -92 -3 -213q108 -1 283 2l5 -7q-4 -31 -5 -77l-6 -7q-116 3 -277 3q-2 -91 0 -239q182 0 311 5z" />
    <glyph glyph-name="F" unicode="F" horiz-adv-x="479" 
d="M437 315l-6 -7q-91 3 -238 4q-6 -137 6 -305l-5 -7q-36 0 -116 -3l-5 7q6 114 6 429q0 144 -6 266l5 7q200 -3 403 3l5 -7q-4 -32 -6 -80l-6 -6q-165 4 -280 4q-3 -123 -3 -201v-23q115 1 248 5l5 -6q-7 -77 -7 -80z" />
    <glyph glyph-name="G" unicode="G" horiz-adv-x="688" 
d="M632 347l5 -6q-5 -99 -5 -219q0 -29 2 -89l-6 -7q-102 -41 -212 -41q-184 0 -280 104q-88 95 -88 255q0 166 95 271q94 106 260 106q111 0 204 -43l5 -7q-7 -46 -11 -97l-8 -2q-89 60 -184 60q-120 0 -185 -88q-55 -75 -55 -200q0 -126 64 -199t183 -73q47 0 103 17l1 75
q0 63 -6 174l6 7q65 0 112 2z" />
    <glyph glyph-name="H" unicode="H" horiz-adv-x="708" 
d="M638 7l-6 -7q-57 0 -113 -3l-6 7q6 226 5 336q-9 0 -38.5 0.5t-55.5 0.5q-95 0 -233 -2q-1 -210 7 -332l-5 -7q-58 0 -113 -3l-6 7q5 123 5 452q0 123 -6 243l6 7q74 1 111 3l5 -7q-3 -177 -3 -278q104 -2 145 -2q111 0 181 3q-2 215 -7 274l5 7q69 1 111 3l5 -7
q-4 -129 -4 -335q0 -207 10 -360z" />
    <glyph glyph-name="I" unicode="I" horiz-adv-x="271" 
d="M189 709l7 -7q-5 -112 -5 -318q0 -240 8 -377l-6 -7q-79 -2 -111 -3l-6 7q4 122 4 243q0 301 -7 451l5 8q60 0 111 3z" />
    <glyph glyph-name="J" unicode="J" horiz-adv-x="333" 
d="M4 2l-5 8v31q0 27 -1 46l7 5q32 -8 55 -8q60 0 81 47q7 16 9 46t2 139q0 214 -8 383l6 7q88 2 112 3l5 -7q-5 -215 -4 -314v-90q1 -15 1 -90q0 -23 -0.5 -38.5t-4.5 -39.5t-11 -41t-21 -36.5t-33 -31t-49 -19.5t-67 -8q-38 0 -74 8z" />
    <glyph glyph-name="K" unicode="K" horiz-adv-x="604" 
d="M561 709l6 -8q-153 -180 -257 -311q138 -189 294 -379l-6 -11q-65 0 -129 -3l-9 6q-36 53 -138 189.5t-132 174.5q0 -221 8 -360l-6 -7q-59 0 -111 -3l-5 7q4 110 4 408q0 182 -8 287l6 7q69 1 112 3l5 -7q-5 -154 -5 -319q8 9 24 29q7 8 49.5 61.5t99 125.5t76.5 101
l8 6q34 0 114 3z" />
    <glyph glyph-name="L" unicode="L" horiz-adv-x="479" 
d="M466 92l6 -8q-2 -19 -3 -44t-2 -33l-5 -7q-193 0 -381 -3l-6 7q5 202 5 376q0 191 -8 319l7 7q73 1 115 3l6 -6q-10 -187 -10 -451q0 -71 2 -165q108 0 274 5z" />
    <glyph glyph-name="M" unicode="M" horiz-adv-x="854" 
d="M762 709l6 -7q8 -375 26 -695l-5 -7q-30 0 -108 -3l-6 7q1 112 -3 258l-2 106q0 40 -0.5 143.5t-0.5 118.5q-26 -95 -73 -251l-46 -145q-40 -121 -72 -227l-6 -7q-59 0 -116 -3l-6 7q-10 34 -15 50q-15 57 -62 213l-40 140q-42 151 -58 223q-1 -83 -5 -222l-7 -179
q-3 -102 -5 -222l-5 -7q-54 0 -96 -3l-5 7q1 10 3 30.5t3 30.5q4 53 7.5 112.5t7.5 132t6 112.5q11 196 11 277l6 7q60 0 154 3l7 -7q18 -81 55 -206l109 -404l127 417q46 148 57 190l6 7q47 0 151 3z" />
    <glyph glyph-name="N" unicode="N" horiz-adv-x="708" 
d="M634 49l1 -42l-5 -7q-63 0 -123 -3l-8 7q-118 210 -178 315l-158 282l10 -343q1 -21 2 -62.5t2 -62.5q3 -91 5 -126l-6 -7q-48 0 -96 -3l-6 7q5 119 5 286q0 246 -6 409l5 7q81 1 129 3l10 -7q177 -317 204 -365l124 -219l-8 332q-4 167 -9 249l6 7q35 0 95 3l6 -7
q-4 -244 -4 -370q0 -142 3 -283z" />
    <glyph glyph-name="O" unicode="O" horiz-adv-x="750" 
d="M374 -15q-154 1 -239 98t-85 265q0 170 87 271.5t240 101.5q149 0 236 -99t87 -272q0 -176 -87.5 -270.5t-238.5 -94.5zM376 69q53 0 93.5 22.5t64.5 63t35.5 91t11.5 109.5q0 127 -43 197q-53 86 -161 86q-109 0 -161 -85q-45 -70 -45 -198q0 -121 41 -192
q55 -94 164 -94z" />
    <glyph glyph-name="P" unicode="P" 
d="M200 7l-6 -7q-58 0 -110 -3l-6 7q3 94 3 229q0 314 -9 466l5 7q8 0 54 1t55 1l66 2q117 0 165 -15q76 -25 108 -80t32 -117t-30 -112q-40 -67 -113.5 -92.5t-175.5 -25.5q-10 0 -24 0.5t-21 0.5q1 -147 7 -262zM192 350q90 3 102 4q98 7 134 71q17 30 17 72q0 35 -12 62
q-33 70 -151 70q-36 0 -90 -4q0 -23 -0.5 -69.5t-0.5 -70.5q0 -23 0.5 -68t0.5 -67z" />
    <glyph glyph-name="Q" unicode="Q" horiz-adv-x="750" 
d="M554 -86l-180 71q-15 1 -43 3q-139 15 -210 114t-71 248q0 161 81.5 266t243.5 105q73 0 131 -23.5t93.5 -60t59 -86t32.5 -97t9 -97.5q0 -73 -19 -139q-12 -40 -29.5 -72.5t-33 -51.5t-37 -36t-32.5 -23.5t-29 -15.5q107 -44 227 -71l4 -9q-19 -32 -45 -79l-8 -4z
M579 355q0 124 -45 195q-27 42 -69 65t-90 23q-34 0 -66 -12t-65.5 -41t-53.5 -88t-20 -142q0 -16 0.5 -29.5t4.5 -45t11 -56.5t22.5 -55.5t36.5 -51t55 -34.5t76 -14q51 0 92 22q41 23 70 72q41 71 41 192z" />
    <glyph glyph-name="R" unicode="R" horiz-adv-x="604" 
d="M200 7l-6 -7q-58 0 -110 -3l-6 7q4 129 4 292q0 236 -10 403l6 7h25q7 0 44.5 0.5t56.5 0.5l61 1q108 0 157 -17q126 -43 126 -177q0 -66 -40.5 -118.5t-130.5 -77.5q2 -3 113 -163q46 -66 107 -146l-4 -10q-41 0 -61 -1q-42 -2 -63 -4l-7 5l-12 21q-11 20 -95 148
q-71 108 -90 133q-50 -2 -72 -1q0 -195 7 -293zM191 382q53 -1 80 0t66 10t61 29q38 32 38 84q0 38 -19 69q-22 34 -58 43t-103 9q-31 0 -65 -1q-1 -124 0 -243z" />
    <glyph glyph-name="S" unicode="S" horiz-adv-x="542" 
d="M282 422l50 -22q38 -17 59 -28.5t51.5 -35.5t45 -58.5t14.5 -79.5q0 -90 -66.5 -151.5t-190.5 -61.5q-110 0 -198 44l-4 7q2 21 8 92l10 4q87 -59 176 -59q73 0 109.5 32t36.5 81q0 47 -31 73t-92 49l-50 22q-30 14 -45.5 22t-42.5 26.5t-41 37t-25.5 48t-11.5 64.5
q0 61 31 105q61 88 210 88q80 0 180 -32l5 -8q-3 -30 -8 -88l-8 -4q-29 15 -46.5 22.5t-50.5 15.5t-68 8q-62 0 -98.5 -27t-36.5 -71q0 -47 51 -79q14 -9 77 -36z" />
    <glyph glyph-name="T" unicode="T" horiz-adv-x="500" 
d="M498 627l-6 -7q-84 2 -184 2q-2 -100 -2 -205q0 -270 7 -410l-6 -7q-60 0 -115 -3l-5 7q6 168 6 420q0 69 -3 198q-102 -1 -186 -4l-6 7q1 18 2 37.5t2 36.5l5 7q187 0 259 1q77 0 231 2l5 -7q-4 -47 -4 -75z" />
    <glyph glyph-name="U" unicode="U" horiz-adv-x="688" 
d="M608 709l6 -7q-3 -136 -3 -194q0 -75 1 -150l1 -90q0 -43 -2 -69.5t-15.5 -68.5t-40.5 -71q-68 -74 -206 -74q-146 0 -219 81q-37 43 -45.5 89.5t-8.5 149.5v102q0 162 -3 292l7 7q68 1 112 3l5 -7q-4 -104 -4 -382q0 -87 6.5 -130.5t30.5 -71.5q40 -49 125 -49
q103 0 142 76q10 20 15 49.5t6 53.5t1 74q0 247 -8 377l5 7q57 1 92 3z" />
    <glyph glyph-name="V" unicode="V" 
d="M367 7l-6 -7q-37 0 -145 -3l-7 7q-53 185 -99 337q-10 33 -59 192.5t-51 165.5l5 7q40 0 115 3l7 -7q39 -149 84 -316l87 -315l89 314q52 186 86 314l6 7q53 0 100 3l5 -7q-49 -154 -110 -354q-83 -261 -95 -301q-8 -26 -12 -40z" />
    <glyph glyph-name="W" unicode="W" horiz-adv-x="875" 
d="M714 7l-7 -7q-78 0 -144 -3l-7 7q-14 86 -36 202l-82 431l-83 -408q-11 -60 -16 -82q-3 -19 -14 -73t-13 -67l-6 -7q-42 0 -145 -3l-7 7q-57 284 -155 695l5 7q41 0 114 3l6 -7q1 -7 21 -117q8 -45 24 -133l73 -382l84 443q12 63 34 186l6 7q100 1 159 3l6 -7
q2 -16 3 -25q1 -8 33 -188l79 -422l78 395q38 200 43 237l6 7q35 0 98 3l5 -7q-23 -76 -84 -348q-68 -298 -74 -326q0 -4 -2 -11t-2 -10z" />
    <glyph glyph-name="X" unicode="X" horiz-adv-x="542" 
d="M539 11l-3 -8l-57 -3q-40 -2 -62 -4l-8 5q-69 134 -145 269q-74 -125 -148 -263l-8 -7q-57 0 -112 -3l-6 8q25 39 46 72.5t41.5 66.5t31.5 50q69 106 104 168q-127 230 -192 333l5 9q6 0 18 0.5t22 1t18 1.5q29 1 58 6l8 -5q53 -107 133 -255q69 122 132 246l7 7
q41 0 111 3l5 -7q-62 -96 -206 -335q110 -192 207 -356z" />
    <glyph glyph-name="Y" unicode="Y" horiz-adv-x="542" 
d="M331 6l-6 -7q-63 1 -110 -1l-6 7q4 77 4 238q0 34 -1 47q-124 241 -219 406l5 9l57 3q10 1 29.5 2.5t28.5 1.5l8 -4q1 -3 3.5 -8.5t4.5 -8.5q64 -133 149 -302q81 146 159 311l8 6q37 0 98 3l6 -8q-88 -156 -125 -222q-55 -98 -97 -181q-1 -33 -1 -76q0 -126 5 -216z" />
    <glyph glyph-name="Z" unicode="Z" horiz-adv-x="521" 
d="M496 4l-7 -5q-124 1 -389 1q-50 0 -90 -1l-6 9q87 157 222 409l110 207q-155 0 -302 -2l-5 7q5 40 7 72l6 7q204 -2 307 -2q76 0 144 2l5 -10q-74 -128 -168 -302q-86 -158 -168 -315q158 0 336 5l6 -6q-4 -26 -8 -76z" />
    <glyph glyph-name="bracketleft" unicode="[" horiz-adv-x="313" 
d="M304 -211l-6 -7q-93 1 -204 1l-5 6q6 84 7 241q0 26 1 168t1 216q0 154 -6 343l6 7q30 -1 90 -1q30 0 114 2l6 -7q-2 -30 -2 -65l-6 -6q-42 1 -92 1q-10 -168 -10 -505q0 -93 4 -323q45 0 99 3l6 -8q-3 -35 -3 -66z" />
    <glyph glyph-name="backslash" unicode="\" horiz-adv-x="458" 
d="M467 -132l-4 -8q-49 0 -89 -1l-8 7q-133 343 -271 660q-35 83 -101 231l6 8q5 0 45 -1h40l9 -6q25 -69 87 -224q76 -184 183 -432q62 -141 103 -234z" />
    <glyph glyph-name="bracketright" unicode="]" horiz-adv-x="313" 
d="M8 758l6 7q93 -1 204 -1l5 -6q-6 -84 -7 -241q0 -26 -1 -168t-1 -216q0 -154 6 -343l-6 -7q-30 1 -90 1q-30 0 -114 -2l-6 7q2 30 2 65l6 6q42 -1 92 -1q10 168 10 505q0 93 -4 323q-45 0 -99 -3l-6 8q3 34 3 66z" />
    <glyph glyph-name="asciicircum" unicode="^" horiz-adv-x="729" 
d="M407 706l180 -370h-97l-124 260l-128 -260h-96l188 370h77z" />
    <glyph glyph-name="underscore" unicode="_" horiz-adv-x="500" 
d="M510 -75v-50h-520v50h520z" />
    <glyph glyph-name="grave" unicode="`" horiz-adv-x="292" 
d="M175 741l7 -5q11 -40 54 -150l-5 -8q-38 0 -70 -2l-6 6q-49 78 -100 150l4 8q63 0 116 1z" />
    <glyph glyph-name="a" unicode="a" horiz-adv-x="521" 
d="M452 305v-99q0 -122 6 -200l-5 -5q-18 0 -101 -4l-4 6l1 36q-65 -51 -140 -51t-122.5 46.5t-47.5 120.5q0 95 72.5 138t219.5 60l17 2q0 46 -9 62q-21 37 -83 37q-63 0 -152 -38l-8 5q1 24 2 43.5t1 29.5l6 6q92 33 173 33q139 0 167 -103q7 -28 7 -125zM349 281l-9 -2
q-33 -5 -50 -8t-44.5 -9.5t-41.5 -14t-30 -19.5t-22.5 -28.5t-6.5 -38.5q0 -5 0.5 -11.5t5.5 -22t14 -27t28.5 -21t46.5 -9.5q61 0 109 44v167z" />
    <glyph glyph-name="b" unicode="b" 
d="M177 -2h-21q-34 1 -79 1l-6 6q4 124 4 268v149q-1 253 -11 349l5 6l105 21l7 -7l-4 -303q66 45 140 45q96 0 159 -68t63 -183q0 -112 -62 -186q-30 -36 -68 -58.5t-83.5 -30t-74.5 -9t-74 -0.5zM180 76l28 -1q115 -4 172 57q50 53 50 149q0 83 -46 129q-40 41 -98 41
q-50 0 -108 -38q-1 -122 2 -337z" />
    <glyph glyph-name="c" unicode="c" horiz-adv-x="458" 
d="M438 123l8 -4q-7 -75 -8 -89l-7 -7q-70 -34 -138 -34q-112 0 -180.5 73.5t-68.5 191.5q0 122 68.5 200.5t182.5 78.5q61 0 137 -32l4 -7q-4 -39 -7 -79l-8 -4q-54 39 -111 39q-66 0 -111 -50t-45 -142q0 -95 44.5 -140t110.5 -45t129 50z" />
    <glyph glyph-name="d" unicode="d" 
d="M400 771l5 6q56 10 106 21l7 -6q-8 -159 -8 -487q0 -160 8 -298l-5 -7q-33 0 -102 -3l-7 6l2 37q-67 -50 -138 -50q-100 0 -162.5 71.5t-62.5 185.5q0 137 88 215q76 69 220 69q31 0 58 -2q1 126 -9 242zM405 123q2 140 1 325q-6 0 -15 1t-17.5 1.5t-17.5 0.5
q-95 0 -145 -47q-58 -55 -58 -157q0 -79 37 -123q39 -45 103 -45q61 0 112 44z" />
    <glyph glyph-name="e" unicode="e" horiz-adv-x="542" 
d="M477 127l8 -5q-6 -47 -8 -89l-6 -7q-72 -38 -160 -38q-125 0 -196 69.5t-71 198.5q0 133 69.5 205t173.5 72q106 0 164 -69q57 -68 54 -211l-7 -6q-169 1 -347 0q2 -82 38 -125q45 -54 129 -54q45 0 87 15q38 16 72 44zM402 324q-3 38 -10 59q-14 39 -43.5 58.5
t-65.5 19.5q-48 0 -86.5 -34.5t-45.5 -103.5q90 -1 251 1z" />
    <glyph glyph-name="f" unicode="f" horiz-adv-x="292" 
d="M194 7l-5 -7q-55 0 -108 -3l-5 7q5 105 5 319q0 71 -1 115q-25 -1 -70 -1l-6 6q3 45 4 72l6 6q60 -2 64 -2l-1 66q0 62 3 80q23 116 175 116q12 0 38 -2l5 -7q-4 -30 -7 -72l-7 -5q-18 4 -27 4q-42 0 -60 -30q-11 -17 -13.5 -40.5t-1.5 -79.5v-30l46 1q47 1 53 1l5 -6
q-4 -57 -4 -71l-6 -6q-43 1 -92 1q0 -248 8 -400q0 -10 2 -32z" />
    <glyph glyph-name="g" unicode="g" horiz-adv-x="521" 
d="M218 167l-30 -45q2 -1 83.5 -21.5t98.5 -25.5q122 -39 122 -147q0 -71 -60.5 -124.5t-172.5 -53.5q-107 0 -166.5 45t-59.5 112q0 34 16 64t31 45t42 36q-28 12 -47 21l-2 12q38 55 68 102q-48 19 -72 60t-24 90q0 48 21 89q51 97 203 97q7 0 26.5 -0.5t29.5 -0.5l25 -1
q67 -1 151 0l5 -6q-3 -34 -5 -66l-6 -6l-84 6q47 -40 47 -112q0 -73 -53 -123t-143 -50q-22 0 -44 3zM356 341q-1 47 -25.5 80.5t-76.5 33.5q-48 0 -77 -32t-29 -82q0 -44 25.5 -77.5t80.5 -33.5q56 0 79.5 33.5t22.5 77.5zM263 6l-72 19q-30 -30 -44.5 -54t-14.5 -55
q0 -36 32 -67.5t100 -31.5q58 0 89.5 26.5t31.5 64.5q0 19 -7.5 34t-16.5 24t-28.5 17.5t-31.5 12t-38 10.5z" />
    <glyph glyph-name="h" unicode="h" 
d="M519 7l-6 -6q-57 -1 -100 -4l-7 7l1 33q1 52 1 157l-1 107q0 46 -5 68q-18 76 -90 76q-57 0 -134 -56q-1 -221 7 -382l-5 -6q-65 -1 -107 -4l-5 7q5 178 5 353q0 84 -2 252q-1 64 -8 162l5 6q58 10 109 21l6 -7q-6 -107 -6 -323q94 62 179 62q39 0 67 -12q65 -26 82 -95
q5 -18 7 -99v-117l1 -47q2 -105 6 -153z" />
    <glyph glyph-name="i" unicode="i" horiz-adv-x="250" 
d="M185 7l-5 -6q-64 -1 -109 -4l-5 7q6 106 6 210q0 202 -10 286l5 7q66 11 108 20l10 -6q-6 -104 -6 -235q0 -177 6 -279zM187 673l-6 -7q-53 -2 -111 -8l-6 6q1 13 1 40q0 14 -2 54l7 6q48 4 111 10l6 -6q-1 -46 0 -95z" />
    <glyph glyph-name="j" unicode="j" horiz-adv-x="250" 
d="M179 526l8 -6q-8 -117 -8 -405l1 -77q2 -124 -19 -169q-38 -81 -158 -110l-7 4q-6 27 -17 65l5 8q49 11 67 43t20 102q1 37 1 143q0 261 -11 377l6 6q50 7 112 19zM184 673l-6 -7q-53 -2 -111 -8l-6 6q1 13 1 40q0 14 -2 54l7 6q48 4 111 10l6 -6q-1 -46 0 -95z" />
    <glyph glyph-name="k" unicode="k" horiz-adv-x="500" 
d="M506 11l-4 -10h-43q-37 0 -77 -4l-8 6q-63 106 -198 296l2 -123q1 -73 6 -169l-5 -7q-64 -1 -104 -3l-6 6q4 128 4 282q0 105 -1 157q0 197 -10 328l6 7q44 8 107 20l7 -6q-5 -172 -5 -280v-207q128 155 168 210l9 6q10 0 44.5 1t65.5 2l3 -9q-62 -69 -176 -202
q112 -161 215 -301z" />
    <glyph glyph-name="l" unicode="l" horiz-adv-x="250" 
d="M184 7l-6 -6q-22 0 -105 -4l-5 7q5 178 5 353q0 286 -10 414l5 6q53 9 109 21l6 -7q-7 -131 -7 -394q0 -238 8 -390z" />
    <glyph glyph-name="m" unicode="m" horiz-adv-x="896" 
d="M64 500l5 7q43 7 107 20l6 -7l-3 -51q90 64 169 64q30 0 53.5 -7t39 -21t22 -22.5t14.5 -21.5q96 72 192 72q67 0 107 -40q33 -31 40.5 -63.5t7.5 -105.5v-85q0 -124 6 -232l-6 -7q-33 0 -102 -3l-6 6q3 125 3 255q0 85 -5 108q-16 78 -88 78q-64 0 -128 -51
q4 -28 4 -122v-57q0 -123 6 -207l-5 -7q-34 0 -105 -3l-6 6q5 112 5 268q0 75 -7 102q-18 72 -84 72q-61 0 -126 -51v-171q0 -118 7 -216l-6 -7q-56 0 -104 -3l-6 6q4 80 4 200q0 213 -11 297z" />
    <glyph glyph-name="n" unicode="n" 
d="M519 7l-6 -6q-57 -1 -100 -4l-7 7q0 6 0.5 17t0.5 16q1 49 1 147q0 160 -6 185q-19 76 -90 76q-61 0 -133 -56q-1 -227 8 -382l-6 -6q-61 -1 -105 -4l-5 7q3 168 3 184q0 151 -12 312l6 7q26 5 106 20l7 -7l-1 -52q90 62 176 62q49 0 83 -19q41 -24 58 -65
q14 -31 15 -122v-117q4 -165 7 -200z" />
    <glyph glyph-name="o" unicode="o" 
d="M539 268q0 -58 -9 -97q-16 -72 -65 -121q-61 -61 -173 -61q-114 0 -179 67q-69 70 -69 204t69 203q68 70 186 70q116 0 179 -72q57 -66 61 -193zM430 264q0 85 -29 136q-35 57 -107 57q-74 0 -110 -58q-30 -46 -30 -141q0 -140 80 -181q26 -13 59 -13q79 0 114 67
q27 52 23 133z" />
    <glyph glyph-name="p" unicode="p" 
d="M179 521l-2 -42q68 54 146 54q95 0 155.5 -69.5t60.5 -175.5q0 -124 -81.5 -206t-232.5 -82q-17 0 -45 2q1 -106 8 -240l-6 -6l-105 -3l-5 6q4 122 4 226q0 29 -0.5 88t-0.5 89q-1 230 -13 339l5 6q27 4 105 20zM179 77q39 -3 42 -3q98 0 153 56.5t55 150.5
q0 77 -37 122.5t-98 45.5q-55 0 -115 -42q-2 -104 -2 -154q0 -60 2 -176z" />
    <glyph glyph-name="q" unicode="q" 
d="M515 522l7 -6q-7 -155 -7 -398q0 -182 5 -313l2 -43l-5 -6l-103 -3l-6 6q4 131 3 278q-72 -49 -146 -49q-100 0 -160.5 73.5t-60.5 181.5q0 73 27 130q19 41 49.5 70.5t60 45t68 24t65 10.5t60.5 2q10 0 70 -1.5t71 -1.5zM410 119v324h-38q-106 0 -159 -48
q-58 -54 -58 -150q0 -69 35 -118t105 -49q59 0 115 41z" />
    <glyph glyph-name="r" unicode="r" horiz-adv-x="333" 
d="M310 421l-7 -5q-22 9 -40 9q-23 0 -42 -13q-28 -20 -34.5 -54t-6.5 -123q0 -130 7 -228l-5 -7q-34 0 -106 -3l-5 6q2 152 2 238q0 172 -9 259l6 7q21 4 55 10.5t49 9.5l6 -6l-5 -85q7 18 13 29.5t20 29.5t36.5 27.5t52.5 9.5q16 0 28 -3l4 -6q-12 -56 -19 -102z" />
    <glyph glyph-name="s" unicode="s" horiz-adv-x="437" 
d="M245 315l36 -11q17 -6 29.5 -10.5t33.5 -17t34 -27.5t23.5 -40t10.5 -55q0 -73 -56 -118q-57 -48 -160 -48q-74 0 -137 25l-15 6l-5 9q4 34 6 84l10 3q62 -48 139 -48q54 0 81 23.5t27 51.5q0 22 -15 37.5t-33 23.5t-56 20l-32 11q-23 7 -39 14.5t-40.5 23.5t-38 43.5
t-13.5 63.5q0 74 57 114t145 40q72 0 144 -28l5 -7q-7 -60 -8 -79l-9 -4q-63 40 -129 40q-24 0 -43 -5q-55 -15 -55 -60q0 -29 23.5 -43.5t79.5 -31.5z" />
    <glyph glyph-name="t" unicode="t" horiz-adv-x="313" 
d="M292 85l7 -6q-3 -29 -4 -69l-5 -6q-38 -9 -75 -9q-87 0 -118 52q-13 21 -15.5 49t-2.5 122l2 220l-72 -2l-4 6q2 32 2 72l6 6h18.5h23h26.5q-1 21 -1 64l-3 57l5 7q51 12 102 28l7 -5q-4 -88 -4 -152q79 2 111 3l5 -6q-3 -39 -3 -71l-5 -6q-100 2 -109 2l-2 -186
q1 -12 1 -83q0 -57 11.5 -76.5t47.5 -19.5q23 0 48 9z" />
    <glyph glyph-name="u" unicode="u" 
d="M506 524l6 -7q-3 -114 -3 -228q0 -133 5 -240q0 -14 2 -42l-4 -6q-19 0 -102 -4l-6 6l1 42q-78 -57 -157 -57q-70 0 -114 34q-30 24 -45 64.5t-17 68.5t-3 82v62q-2 164 -5 213l5 7q59 1 103 5l6 -7l-4 -219v-24v-33v-38q1 -24 3 -39.5t11 -40.5t32 -38.5t58 -13.5
q59 0 125 52q1 54 1 158q0 156 -7 232l6 7q63 1 103 4z" />
    <glyph glyph-name="v" unicode="v" horiz-adv-x="458" 
d="M296 7l-6 -6q-77 -1 -128 -4l-6 7q-83 288 -160 506l4 8q52 3 109 9l8 -5q39 -158 119 -443q6 20 36.5 127t34.5 122q29 102 50 190l7 5q35 -2 94 0l5 -7q-75 -207 -167 -509z" />
    <glyph glyph-name="w" unicode="w" horiz-adv-x="792" 
d="M649 7l-7 -6q-78 -1 -136 -4l-7 7q-14 70 -48 213l-58 240l-59 -246q-42 -168 -49 -204l-6 -6q-77 -1 -138 -4l-6 7q-30 121 -75.5 283.5t-64.5 223.5l4 7q80 5 109 8l6 -6q7 -37 56 -249l48 -206l65 269q27 122 38 178l7 7q76 0 142 3l6 -7q6 -32 56 -241l53 -212
l56 233l24 105q19 76 25 114l7 6q8 0 24.5 -0.5t24.5 -0.5q15 0 23 1h22l6 -6q-94 -283 -148 -507z" />
    <glyph glyph-name="x" unicode="x" horiz-adv-x="458" 
d="M457 10l-5 -9l-30 -2t-39 -2.5t-46 -3.5l-6 5q-41 82 -102 190q-57 -96 -103 -183l-7 -5q-57 1 -114 -1l-3 8q105 141 181 259q-79 132 -149 242l3 9q72 4 116 9l5 -4q52 -109 88 -168q63 105 90 161l8 6q61 0 101 1l3 -9q-43 -60 -159 -239q96 -157 168 -264z" />
    <glyph glyph-name="y" unicode="y" horiz-adv-x="458" 
d="M462 523l3 -9q-72 -177 -178 -475q-59 -173 -82 -275l-9 -8q-67 -1 -106 -3l-4 7l4 7q8 16 16.5 35.5t18 43t15.5 36.5q41 96 42 100q1 2 3 8q0 9 -80.5 225.5t-111.5 291.5l4 9q81 6 111 10l6 -6q36 -122 62 -197l63 -191l57 176q47 153 62 208l7 6q52 0 97 1z" />
    <glyph glyph-name="z" unicode="z" horiz-adv-x="437" 
d="M410 5l-6 -5q-14 0 -97 -0.5t-99 -0.5q-130 0 -191 -2l-4 9q137 228 248 436q-161 -1 -220 -4l-5 6q5 42 7 69l6 6q187 0 361 3l5 -8q-97 -158 -243 -435q141 2 240 6l5 -6q-4 -33 -7 -74z" />
    <glyph glyph-name="braceleft" unicode="{" horiz-adv-x="354" 
d="M61 249v50q16 5 23.5 8t17.5 13t18 27q12 30 12 113v96q1 71 7.5 105t29.5 59q25 27 55 34.5t108 10.5v-50q-16 -4 -22 -6t-20 -8t-24 -15.5t-17 -22.5q-16 -27 -17 -115v-46q0 -60 -1 -91q-2 -69 -22.5 -96t-63.5 -41q43 -14 63.5 -41t22.5 -96q1 -31 1 -91v-47
q1 -88 17 -115q7 -13 17 -22.5t24 -15.5t20 -8t22 -6v-50q-78 3 -108 10.5t-55 34.5q-23 25 -29.5 59t-7.5 105v97q0 83 -12 113q-8 17 -18 27t-17.5 13t-23.5 8z" />
    <glyph glyph-name="bar" unicode="|" horiz-adv-x="229" 
d="M154 750v-1000h-80v1000h80z" />
    <glyph glyph-name="braceright" unicode="}" horiz-adv-x="354" 
d="M293 298v-50q-16 -5 -23.5 -8t-17.5 -13t-18 -27q-12 -30 -12 -113v-96q-1 -71 -7.5 -105t-29.5 -59q-25 -27 -55 -34.5t-108 -10.5v50q16 4 22 6t20 8t24 15.5t17 22.5q16 27 17 115v46q0 60 1 91q2 69 22.5 96t63.5 41q-43 14 -63.5 41t-22.5 96q-1 31 -1 91v47
q-1 88 -17 115q-7 13 -17 22.5t-24 15.5t-20 8t-22 6v50q78 -3 108 -10.5t55 -34.5q23 -25 29.5 -59t7.5 -105v-97q0 -83 12 -113q8 -17 18 -27t17.5 -13t23.5 -8z" />
    <glyph glyph-name="asciitilde" unicode="~" horiz-adv-x="729" 
d="M567 366l38 -71q-62 -80 -137 -80q-31 0 -101 32l-28 14q-50 24 -80 24q-27 0 -43.5 -12.5t-51.5 -54.5l-40 71q57 85 133 85q39 0 111 -34l33 -15q48 -21 70 -21q49 0 96 62z" />
    <glyph glyph-name="exclamdown" unicode="&#xa1;" horiz-adv-x="271" 
d="M66 541l5 6q4 0 80 4l6 -7q-3 -284 14 -537l-6 -7q-60 0 -119 -3l-6 7q26 294 26 537zM56 643l-9 9q1 54 0 103l7 8q28 1 63 2.5t48 2.5l7 -7q-1 -18 -1 -53t1 -52l-8 -9q-62 -1 -108 -4z" />
    <glyph glyph-name="cent" unicode="&#xa2;" horiz-adv-x="479" 
d="M438 119l9 -4q-6 -45 -7 -86l-6 -7q-71 -34 -142 -34q-24 0 -47 5q-10 -45 -16 -81l-7 -5q-26 1 -55 1l-4 6q17 51 28 92q-44 16 -75 47t-45.5 69t-20.5 70.5t-6 64.5q0 129 73 203.5t174 74.5q5 0 14 -0.5t14 -0.5q3 15 13 70l6 6q29 -1 54 0l5 -6q-5 -19 -8.5 -32
t-7 -25t-5.5 -21q37 -10 67 -26l3 -5q-10 -63 -12 -79l-10 -4q-28 26 -66 38l-95 -378q27 -5 43 -5q63 0 132 52zM212 93l89 365q-36 0 -64.5 -13.5t-44 -36.5t-26 -44.5t-14 -48.5t-4.5 -38t-1 -22q0 -104 65 -162z" />
    <glyph glyph-name="sterling" unicode="&#xa3;" horiz-adv-x="479" 
d="M454 84l7 -7q-2 -23 -3 -73l-6 -6h-27q-17 0 -116 1t-118 1q-62 0 -158 -3l-4 7q50 145 51 305l-66 -2l-6 6q0 17 2 61l5 7l64 -2q-3 39 -3 92q0 108 55 162q59 56 167 56q86 0 154 -28l6 -8q-5 -38 -7 -75l-8 -4q-64 35 -130 35q-76 0 -104 -39t-28 -109q0 -12 1 -44
l1 -38q90 0 218 4l5 -5q-2 -24 -5 -63l-6 -7q-71 1 -211 1q1 -119 -36 -230q3 0 73 0.5t81 0.5q98 0 152 4z" />
    <glyph glyph-name="currency" unicode="&#xa4;" horiz-adv-x="667" 
d="M625 570l-76 -75q18 -28 26 -43.5t16 -45t8 -64.5q0 -38 -8 -69t-16.5 -46.5t-26.5 -43.5l76 -77l-61 -60l-76 77q-27 -17 -43.5 -26t-45.5 -16.5t-64 -7.5q-37 0 -67.5 8t-46 16.5t-42.5 26.5l-76 -76l-60 60l76 76q-18 28 -26 43t-16.5 46t-8.5 68q0 79 51 154l-75 75
l60 60l75 -75q74 51 157 51q35 0 64.5 -8t45.5 -16.5t43 -26.5l76 76zM519 340q1 84 -55 136t-129 52q-79 0 -133.5 -53.5t-54.5 -133.5q0 -84 55.5 -137t130.5 -53q77 0 131 52.5t55 136.5z" />
    <glyph glyph-name="yen" unicode="&#xa5;" horiz-adv-x="542" 
d="M462 178l-6 -6q-26 1 -54 1h-76q1 -115 4 -166l-6 -7q-42 1 -107 -2l-6 7q3 46 3 137v31q-39 0 -69 -0.5t-45.5 -0.5h-18.5l-6 8q4 26 5 56l7 7q1 0 24.5 -0.5t54 -0.5h49.5q0 18 -1 36q-2 4 -13 25t-12 23q-31 0 -66.5 -0.5t-41.5 -0.5l-6 7q4 27 5 57l7 7q5 0 24 -0.5
t41 -0.5q-81 150 -152 272l5 9q9 0 27.5 1t28.5 2q38 2 57 4l7 -5q70 -145 153 -305q91 159 154 298l8 6q53 0 96 3l6 -8q-95 -164 -157 -277h40q18 0 36 1l6 -5q-4 -32 -5 -60l-6 -6q-23 1 -109 1q-6 -10 -21 -40q0 -2 -0.5 -23t0.5 -21h83q20 0 52 2l6 -6q-4 -32 -5 -60z
" />
    <glyph glyph-name="brokenbar" unicode="&#xa6;" horiz-adv-x="229" 
d="M75 -191v381h80v-381h-80zM155 308h-80v381h80v-381z" />
    <glyph glyph-name="section" unicode="&#xa7;" horiz-adv-x="500" 
d="M276 493l62 -31q29 -14 46.5 -24.5t42 -30.5t37 -47t12.5 -61q0 -94 -97 -151q21 -17 32.5 -28.5t24.5 -38.5t13 -60q0 -12 -2 -26t-14 -40t-32.5 -45.5t-63 -35t-100.5 -15.5q-93 0 -173 42l-4 7q3 38 3 79l9 4q76 -56 158 -56q52 0 84 21t32 56q0 46 -58 76
q-9 5 -66 33l-53 26q-57 29 -77 44q-65 50 -65 126q0 33 10.5 60.5t31.5 47t30 26t28 17.5q-18 15 -28.5 26.5t-20.5 35.5t-10 52q0 74 57 118q53 39 141 39q76 0 153 -30l5 -8q-4 -38 -6 -75l-7 -4q-66 39 -138 39q-55 0 -81 -21.5t-26 -49.5t23 -46.5t87 -50.5zM223 232
l92 -48q70 38 70 91q0 36 -25.5 56.5t-98.5 57.5l-41 21q-16 8 -34 19q-20 -12 -32 -20.5t-25.5 -28.5t-13.5 -43q0 -33 21 -51.5t87 -53.5z" />
    <glyph glyph-name="dieresis" unicode="&#xa8;" horiz-adv-x="292" 
d="M300 725l7 -7q-1 -45 1 -99l-7 -8q-58 0 -107 -1l-6 8q1 54 0 99l8 7q51 -1 104 1zM95 725l7 -8q-1 -57 0 -99l-6 -8q-43 1 -106 -2l-6 8q2 47 0 98l8 9q40 -1 103 2z" />
    <glyph glyph-name="copyright" unicode="&#xa9;" horiz-adv-x="833" 
d="M773 351q0 -103 -57 -195q-45 -70 -124.5 -114.5t-175.5 -44.5q-92 0 -173 44t-131.5 127t-50.5 185q0 150 104 253t253 103q150 0 252.5 -103t102.5 -255zM741 352q1 133 -91 229t-231 96q-136 0 -231 -94t-95 -231q0 -133 94 -228t232 -95q85 0 158 40t118 115t46 168z
M558 258l56 -49q-78 -91 -191 -91q-101 0 -168 67t-67 169q0 100 66.5 169t168.5 69q113 0 190 -90l-55 -53q-17 19 -29.5 30t-41.5 24.5t-62 13.5q-67 0 -113 -45.5t-46 -117.5q0 -71 47 -116t111 -45q34 0 63.5 13t41.5 23.5t29 28.5z" />
    <glyph glyph-name="ordfeminine" unicode="&#xaa;" horiz-adv-x="333" 
d="M293 562v-63q0 -91 4 -130l-6 -6q-34 0 -68 -2l-5 7v15q-45 -28 -84 -28q-50 0 -81.5 31.5t-31.5 79.5q0 63 47.5 91t142.5 40l7 1q0 17 -2 26.5t-15 19t-39 9.5q-43 0 -96 -25l-9 6q0 3 1 26t1 25l6 5q57 22 112 22q93 0 111 -69q5 -17 5 -81zM219 542h-1
q-32 -5 -48 -8.5t-36 -11t-28.5 -20t-8.5 -31.5q0 -6 1 -12t5.5 -17.5t17.5 -18.5t32 -7q40 0 66 26v100z" />
    <glyph glyph-name="guillemotleft" unicode="&#xab;" horiz-adv-x="437" 
d="M129 465l7 5q31 -1 78 -1l4 -8q-2 -4 -24 -44.5t-27 -49.5q-1 -2 -50 -93q23 -49 106 -190l-5 -8q-51 0 -83 -1l-6 5q-37 74 -46 91q-6 13 -28.5 52t-25.5 42l1 10q61 105 99 190zM287 465l7 5q8 0 22 -0.5t21 -0.5h41l4 -7q-39 -59 -101 -183q22 -43 57 -104
q14 -26 50 -89l-5 -8h-79l-6 5q-43 84 -104 187v10q3 7 25.5 49t26.5 50q2 5 6 12.5t13 26t22 47.5z" />
    <glyph glyph-name="logicalnot" unicode="&#xac;" horiz-adv-x="667" 
d="M587 0v253h-587v79h667v-332h-80z" />
    <glyph glyph-name="registered" unicode="&#xae;" horiz-adv-x="833" 
d="M266 580h146q74 0 105 -11q35 -12 53.5 -41t18.5 -63q0 -83 -93 -107q30 -13 44 -32t21 -62q8 -56 14 -80.5t21 -52.5h-92q-11 20 -19 62q-5 48 -11 69q-8 44 -29.5 56.5t-70.5 13.5h-28v-201h-80v449zM347 518v-122h66q18 0 29 1t29.5 6t28 19.5t9.5 36.5q0 38 -32 53
q-16 6 -79 6h-51zM773 351q-1 -148 -104 -251t-253 -103q-143 0 -249 101t-106 254q0 152 104.5 254.5t250.5 102.5q153 0 255.5 -105t101.5 -253zM741 351q1 135 -92.5 230.5t-230.5 95.5t-231 -95t-94 -230t95 -229t229 -94q137 0 230 93.5t94 228.5z" />
    <glyph glyph-name="macron" unicode="&#xaf;" horiz-adv-x="292" 
d="M299 707l6 -6q-5 -40 -6 -71l-7 -5q-14 0 -45.5 0.5t-60.5 0.5q-32 0 -96 -0.5t-96 -0.5l-6 7q5 51 6 67l7 7q65 -2 194 -2q50 0 104 3z" />
    <glyph glyph-name="macron" unicode="&#x2c9;" horiz-adv-x="292" 
d="M299 707l6 -6q-5 -40 -6 -71l-7 -5q-14 0 -45.5 0.5t-60.5 0.5q-32 0 -96 -0.5t-96 -0.5l-6 7q5 51 6 67l7 7q65 -2 194 -2q50 0 104 3z" />
    <glyph glyph-name="degree" unicode="&#xb0;" horiz-adv-x="354" 
d="M16 595q0 67 47.5 114t114.5 47t114 -47t47 -114t-47 -114.5t-114 -47.5q-68 0 -115 47.5t-47 114.5zM98 595q0 -33 23.5 -56.5t56.5 -23.5q32 0 55.5 23.5t23.5 56.5q0 32 -23.5 55.5t-55.5 23.5q-33 0 -56.5 -23.5t-23.5 -55.5z" />
    <glyph glyph-name="plusminus" unicode="&#xb1;" horiz-adv-x="667" 
d="M374 377v-242h-79v242h-254v79h254v242h79v-242h251v-79h-251zM625 79v-79h-584v79h584z" />
    <glyph glyph-name="twosuperior" unicode="&#xb2;" horiz-adv-x="396" 
d="M349 299l6 -7q-1 -24 -1 -51l-6 -6q-208 0 -318 -2l-6 12q58 58 162 169q75 78 75 128q0 32 -24 55.5t-67 23.5q-61 0 -117 -53l-11 5q0 3 0.5 27.5t0.5 37.5l5 6q57 40 133 40q75 0 117 -39.5t42 -95.5q0 -53 -37 -102.5t-138 -150.5q53 0 184 3z" />
    <glyph glyph-name="threesuperior" unicode="&#xb3;" horiz-adv-x="396" 
d="M338 679l5 -8q-7 -10 -55.5 -80.5t-57.5 -84.5q62 -5 92.5 -44t30.5 -85q0 -57 -46 -102.5t-140 -45.5q-75 0 -120 28l-5 6q1 12 2 28.5t2 29.5l10 5q49 -40 109 -40q48 0 78 24t30 62q0 41 -29 61.5t-73 20.5q-27 0 -56 -9l-8 9q65 81 120 163q-93 0 -170 -2l-6 6
q2 23 2 50l6 7h199q22 0 46.5 0.5t33.5 0.5z" />
    <glyph glyph-name="acute" unicode="&#xb4;" horiz-adv-x="292" 
d="M235 742l4 -8q-51 -70 -103 -154l-7 -4q-27 1 -73 1l-4 7q49 118 61 153l6 5q22 -1 59 -1q38 0 57 1z" />
    <glyph glyph-name="mu" unicode="&#xb5;" 
d="M172 524l5 -7q0 -25 -1 -95.5t-2 -122t-1 -58.5q0 -73 12 -103q26 -68 105 -68q105 0 115 124v141q0 75 -7 178l6 7q62 1 103 4l6 -7q-3 -159 -3 -170q0 -190 4 -298l3 -42l-5 -7q-63 -1 -101 -3l-6 6v47q-46 -62 -115 -62q-74 0 -115 62q2 -197 8 -288l-6 -6l-105 -3
l-5 6q4 108 4 231q0 405 -7 522l5 7q59 1 103 5z" />
    <glyph glyph-name="mu" unicode="&#x3bc;" 
d="M172 524l5 -7q0 -25 -1 -95.5t-2 -122t-1 -58.5q0 -73 12 -103q26 -68 105 -68q105 0 115 124v141q0 75 -7 178l6 7q62 1 103 4l6 -7q-3 -159 -3 -170q0 -190 4 -298l3 -42l-5 -7q-63 -1 -101 -3l-6 6v47q-46 -62 -115 -62q-74 0 -115 62q2 -197 8 -288l-6 -6l-105 -3
l-5 6q4 108 4 231q0 405 -7 522l5 7q59 1 103 5z" />
    <glyph glyph-name="paragraph" unicode="&#xb6;" horiz-adv-x="667" 
d="M309 706h230v-54h-34v-819h-58v819h-145v-819h-57v486q-67 10 -107 51q-51 52 -51 135q0 62 29 110q19 31 44.5 50.5t55 27.5t48 10t45.5 3z" />
    <glyph glyph-name="periodcentered" unicode="&#xb7;" horiz-adv-x="229" 
d="M168 340l9 -8q-1 -55 0 -103l-7 -9q-36 -1 -111 -5l-7 8q1 18 1 53q0 34 -1 52l8 8q31 1 108 4z" />
    <glyph glyph-name="periodcentered" unicode="&#x2219;" horiz-adv-x="229" 
d="M168 340l9 -8q-1 -55 0 -103l-7 -9q-36 -1 -111 -5l-7 8q1 18 1 53q0 34 -1 52l8 8q31 1 108 4z" />
    <glyph glyph-name="cedilla" unicode="&#xb8;" horiz-adv-x="292" 
d="M76 -186l-5 8q15 30 65 131l7 5q10 0 36.5 -0.5t37.5 -0.5l3 -6q-15 -43 -41 -130l-7 -7q-44 1 -96 0z" />
    <glyph glyph-name="onesuperior" unicode="&#xb9;" horiz-adv-x="396" 
d="M250 242l-6 -7q-40 0 -73 -1l-6 7q2 102 3 248v41.5v48.5v36q-19 -2 -62 -11l-6 7q4 39 4 49l6 7q81 10 134 18l6 -7q-5 -89 -5 -238q0 -136 5 -198z" />
    <glyph glyph-name="ordmasculine" unicode="&#xba;" horiz-adv-x="375" 
d="M350 538q0 -20 -2 -39t-11.5 -47t-25.5 -48t-48 -34.5t-75 -14.5q-80 0 -121.5 47.5t-41.5 130.5q0 87 45 133q46 46 122 46t118 -48q38 -43 40 -126zM272 536q-2 119 -83 119q-86 0 -86 -123q0 -55 19 -85q23 -36 66 -36q87 0 84 125z" />
    <glyph glyph-name="guillemotright" unicode="&#xbb;" horiz-adv-x="437" 
d="M308 80l-6 -5q-31 1 -79 1l-4 8q4 8 26.5 48.5t25.5 45.5q22 41 49 93q-7 15 -105 191l4 8q47 -1 83 0l7 -5q33 -67 45 -91q47 -87 54 -94v-9q-59 -103 -100 -191zM150 80l-7 -5q-14 1 -43 1h-41l-3 8q38 59 100 182q-18 39 -56 104q-3 6 -13.5 24.5t-23 39.5t-14.5 25
l6 8q52 0 78 1l7 -6q40 -79 104 -186v-11q-20 -35 -52 -99q-2 -3 -42 -86z" />
    <glyph glyph-name="onequarter" unicode="&#xbc;" horiz-adv-x="917" 
d="M887 119l-6 -6q-24 1 -53 1q0 -10 2 -108l-6 -7q-50 0 -66 -1l-6 6q2 46 3 110q-108 0 -205 -1l-6 7q1 23 1 44l3 7q92 132 173 266l6 5q56 0 98 1l6 -6q-2 -87 -2 -264q10 0 20 0.5t17.5 1t18.5 0.5l6 -6q-1 -11 -4 -50zM625 173h131v63q0 16 1 69t2 80
q-50 -85 -67 -110zM250 242l-6 -7q-40 0 -73 -2l-6 7q2 103 3 249v126q-42 -7 -62 -11l-6 7q4 39 4 49l6 6q41 5 134 18l6 -6q-5 -120 -5 -238q0 -136 5 -198zM366 5l-5 -5q-39 0 -70 1l-3 5q38 83 142 325q1 3 26.5 64t58.5 143t52 134l6 4q37 0 67 1l4 -6
q-17 -43 -75 -173q-92 -211 -203 -493z" />
    <glyph glyph-name="onehalf" unicode="&#xbd;" horiz-adv-x="917" 
d="M250 242l-6 -7q-40 0 -73 -2l-6 8q2 102 3 248v41.5v48.5v36q-42 -7 -62 -11l-6 7q4 39 4 49l6 7q52 5 134 18l6 -7q-5 -90 -5 -238q0 -136 5 -198zM870 64l6 -7q-1 -24 -1 -51l-6 -6q-203 0 -319 -2l-5 12q65 67 161 168q75 80 75 128q0 32 -24 55.5t-67 23.5
q-61 0 -117 -53l-10 5v65l5 6q60 40 133 40q75 0 117 -39.5t42 -94.5q0 -53 -37 -102.5t-137 -150.5q54 0 184 3zM325 5l-6 -5q-41 1 -69 1l-3 6q20 44 142 324q1 3 26.5 64t58.5 143t52 134l6 4q36 0 67 1l4 -6q-5 -10 -36.5 -84t-38.5 -89q-99 -226 -203 -493z" />
    <glyph glyph-name="threequarters" unicode="&#xbe;" horiz-adv-x="917" 
d="M338 679l5 -8q-7 -10 -55.5 -80.5t-57.5 -84.5q62 -5 92.5 -44t30.5 -85q0 -57 -46 -102.5t-140 -45.5q-75 0 -120 28l-5 6q1 12 2 28.5t2 29.5l10 5q49 -40 109 -40q48 0 78 24t30 62q0 41 -29 61.5t-73 20.5q-27 0 -56 -9l-8 9q65 81 120 163q-93 0 -170 -2l-6 6
q2 23 2 50l6 7h199q22 0 46.5 0.5t33.5 0.5zM372 5l-5 -5q-39 0 -70 1l-3 5q29 64 142 326l26 63q27 63 59.5 144t51.5 133l6 5q36 0 67 1l4 -6q-17 -37 -75 -174q-87 -198 -203 -493zM886 119l-6 -6q-24 1 -53 1q0 -10 2 -108l-6 -7q-50 0 -66 -1l-6 6q2 46 3 110
q-108 0 -204 -1l-7 7q2 39 2 44l2 7q95 137 173 267l6 5q52 -1 98 0l6 -5q-2 -88 -2 -265q10 0 20 0.5t17.5 1t18.5 0.5l6 -6q-1 -11 -4 -50zM624 173h131v63q3 133 3 149q-49 -82 -67 -109z" />
    <glyph glyph-name="questiondown" unicode="&#xbf;" horiz-adv-x="417" 
d="M178 550l6 8q36 -1 87 2l7 -7q-4 -46 -16.5 -78.5t-39.5 -76.5l-22 -34q-19 -31 -28.5 -48.5t-19.5 -49t-10 -60.5q0 -59 34.5 -89.5t86.5 -30.5q62 0 130 54l9 -3q-1 -12 -7 -92l-5 -7q-66 -41 -152 -41q-95 0 -151 53.5t-56 141.5q0 79 59 170l28 43q53 77 60 145z
M176 643l-8 9q1 32 -1 103l7 8q10 0 111 5l7 -7q0 -9 -0.5 -27t-0.5 -26q0 -9 0.5 -26.5t0.5 -25.5l-8 -9q-60 -1 -108 -4z" />
    <glyph glyph-name="Agrave" unicode="&#xc0;" horiz-adv-x="604" 
d="M390 703l5 -18q55 -183 101 -329q89 -276 111 -346l-4 -8q-54 -1 -116 -4l-7 7q-23 85 -59 211q-20 0 -59.5 0.5t-59.5 0.5q-22 0 -66 -0.5t-64 -0.5q-25 -82 -59 -207l-7 -7q-53 0 -103 -3l-4 7q3 11 11 31q57 162 111 324q82 241 111 338l8 7q83 1 143 4zM302 634
l-105 -338q16 0 48 -0.5t48 -0.5q17 0 52 0.5t53 0.5zM302 901l6 -6q2 -4 4 -12q18 -55 48 -119l-4 -8q-10 0 -37 -0.5t-38 -0.5l-7 4q-67 86 -107 134l4 8h131z" />
    <glyph glyph-name="Aacute" unicode="&#xc1;" horiz-adv-x="604" 
d="M390 703l5 -18q55 -183 101 -329q89 -276 111 -346l-4 -8q-54 -1 -116 -4l-7 7q-23 85 -59 211q-20 0 -59.5 0.5t-59.5 0.5q-22 0 -66 -0.5t-64 -0.5q-25 -82 -59 -207l-7 -7q-53 0 -103 -3l-4 7q3 11 11 31q57 162 111 324q82 241 111 338l8 7q83 1 143 4zM302 634
l-105 -338q16 0 48 -0.5t48 -0.5q17 0 52 0.5t53 0.5zM437 902l3 -8q-58 -71 -106 -135l-7 -4h-76l-4 7q31 64 51 132l6 7q71 0 133 1z" />
    <glyph glyph-name="Acircumflex" unicode="&#xc2;" horiz-adv-x="604" 
d="M390 703l5 -18q55 -183 101 -329q89 -276 111 -346l-4 -8q-54 -1 -116 -4l-7 7q-23 85 -59 211q-20 0 -59.5 0.5t-59.5 0.5q-22 0 -66 -0.5t-64 -0.5q-25 -82 -59 -207l-7 -7q-53 0 -103 -3l-4 7q3 11 11 31q57 162 111 324q82 241 111 338l8 7q83 1 143 4zM302 634
l-105 -338q16 0 48 -0.5t48 -0.5q17 0 52 0.5t53 0.5zM379 902l7 -4q27 -56 78 -134l-5 -7q-7 0 -22 -0.5t-23 -0.5q-34 -2 -52 -4l-7 5q-30 51 -59 97q-27 -40 -60 -95l-7 -5q-37 1 -80 0l-3 8q38 58 80 135l8 5q23 -1 70 -1q50 0 75 1z" />
    <glyph glyph-name="Atilde" unicode="&#xc3;" horiz-adv-x="604" 
d="M390 703l5 -18q55 -183 101 -329q89 -276 111 -346l-4 -8q-54 -1 -116 -4l-7 7q-23 85 -59 211q-20 0 -59.5 0.5t-59.5 0.5q-22 0 -66 -0.5t-64 -0.5q-25 -82 -59 -207l-7 -7q-53 0 -103 -3l-4 7q3 11 11 31q57 162 111 324q82 241 111 338l8 7q83 1 143 4zM302 634
l-105 -338q16 0 48 -0.5t48 -0.5q17 0 52 0.5t53 0.5zM454 888l10 -3q-3 -35 -4 -77l-3 -7q-43 -38 -82 -38q-26 0 -56 15l-27 10q-41 17 -66 17q-44 0 -77 -41l-9 4q3 56 3 78l5 8q38 35 79 35q23 0 65 -16l31 -12q36 -14 55 -14q45 0 76 41z" />
    <glyph glyph-name="Adieresis" unicode="&#xc4;" horiz-adv-x="604" 
d="M390 703l5 -18q55 -183 101 -329q89 -276 111 -346l-4 -8q-54 -1 -116 -4l-7 7q-23 85 -59 211q-20 0 -59.5 0.5t-59.5 0.5q-22 0 -66 -0.5t-64 -0.5q-25 -82 -59 -207l-7 -7q-53 0 -103 -3l-4 7q3 11 11 31q57 162 111 324q82 241 111 338l8 7q83 1 143 4zM302 634
l-105 -338q16 0 48 -0.5t48 -0.5q17 0 52 0.5t53 0.5zM485 878l7 -6q-1 -36 -1 -99l-7 -8q-43 2 -109 2l-7 7q1 50 0 95l7 9q9 0 27 -0.5t27 -0.5t28 0.5t28 0.5zM250 879l7 -7q-2 -48 -1 -98l-7 -8h-107l-7 7v97l7 8q53 -1 108 1z" />
    <glyph glyph-name="Aring" unicode="&#xc5;" horiz-adv-x="604" 
d="M390 703l5 -18q55 -183 101 -329q89 -276 111 -346l-4 -8q-54 -1 -116 -4l-7 7q-23 85 -59 211q-20 0 -59.5 0.5t-59.5 0.5q-22 0 -66 -0.5t-64 -0.5q-25 -82 -59 -207l-7 -7q-53 0 -103 -3l-4 7q3 11 11 31q57 162 111 324q82 241 111 338l8 7q83 1 143 4zM302 634
l-105 -338q16 0 48 -0.5t48 -0.5q17 0 52 0.5t53 0.5zM428 853q1 -50 -30.5 -82.5t-89.5 -32.5q-56 0 -86 31.5t-30 77.5q0 48 32.5 80.5t86.5 32.5q52 0 84 -29.5t33 -77.5zM357 849q0 28 -13 44.5t-33 16.5q-18 0 -32 -15.5t-14 -44.5q0 -30 13 -46.5t34 -16.5
q20 0 31 15.5t12.5 26.5t1.5 20z" />
    <glyph glyph-name="AE" unicode="&#xc6;" horiz-adv-x="854" 
d="M814 89l5 -6q-1 -13 -3 -41q-1 -6 -1.5 -17.5t-0.5 -17.5l-5 -7q-237 -1 -417 -3l-5 7q1 42 2.5 101t2.5 109q-105 1 -206 0q-42 -116 -70 -207l-6 -7q-65 -1 -108 -3l-4 7q36 93 147 366q85 211 125 329l7 7q40 -1 249.5 -0.5t282.5 3.5l5 -7q-3 -31 -6 -77l-5 -6
q-179 4 -299 2q-1 -101 -1 -213q9 0 66 0.5t68 0.5q32 1 85.5 2t60.5 1l5 -6q-3 -32 -4 -77l-5 -6q-114 3 -277 3q0 -167 2 -244q26 0 76 0.5t72 1.5q72 1 162 5zM342 624l-126 -330q85 -1 176 1q2 143 1 329h-51z" />
    <glyph glyph-name="Ccedilla" unicode="&#xc7;" horiz-adv-x="625" 
d="M285 -186l-5 8q30 57 65 131l7 5q53 0 74 -1l4 -6q-24 -72 -41 -130l-8 -7q-44 1 -96 0zM593 139l7 -4q-5 -55 -7 -99l-6 -7q-85 -44 -189 -44q-163 0 -255.5 99.5t-92.5 268.5q0 166 91 265q94 103 264 103q95 0 183 -32l4 -8q-6 -40 -9 -89l-9 -4q-69 45 -159 45
q-118 0 -182.5 -75t-64.5 -203q0 -136 66 -206.5t175 -70.5q98 0 184 61z" />
    <glyph glyph-name="Egrave" unicode="&#xc8;" horiz-adv-x="542" 
d="M501 89l6 -7q-2 -20 -5 -75l-7 -7q-131 0 -416 -3l-5 7q6 158 6 316q0 264 -7 379l6 7q270 1 420 3l6 -7q-6 -60 -7 -78l-6 -7q-114 4 -299 5q-3 -92 -3 -213q108 -1 283 2l5 -7q-4 -31 -5 -77l-6 -7q-116 3 -277 3q-2 -91 0 -239q182 0 311 5zM271 901l6 -6q2 -4 4 -12
q18 -55 48 -119l-4 -8q-11 0 -38 -0.5t-37 -0.5l-7 4q-67 86 -107 134l4 8h52h43.5h35.5z" />
    <glyph glyph-name="Eacute" unicode="&#xc9;" horiz-adv-x="542" 
d="M501 89l6 -7q-2 -20 -5 -75l-7 -7q-131 0 -416 -3l-5 7q6 158 6 316q0 264 -7 379l6 7q270 1 420 3l6 -7q-6 -60 -7 -78l-6 -7q-114 4 -299 5q-3 -92 -3 -213q108 -1 283 2l5 -7q-4 -31 -5 -77l-6 -7q-116 3 -277 3q-2 -91 0 -239q182 0 311 5zM406 902l3 -8
q-58 -71 -106 -135l-7 -4h-76l-4 7q31 64 51 132l6 7q71 0 133 1z" />
    <glyph glyph-name="Ecircumflex" unicode="&#xca;" horiz-adv-x="542" 
d="M501 89l6 -7q-2 -20 -5 -75l-7 -7q-131 0 -416 -3l-5 7q6 158 6 316q0 264 -7 379l6 7q270 1 420 3l6 -7q-6 -60 -7 -78l-6 -7q-114 4 -299 5q-3 -92 -3 -213q108 -1 283 2l5 -7q-4 -31 -5 -77l-6 -7q-116 3 -277 3q-2 -91 0 -239q182 0 311 5zM348 902l7 -4
q27 -56 78 -134l-5 -7q-8 0 -23 -0.5t-22 -0.5q-34 -2 -52 -4l-7 5q-30 51 -59 97q-27 -40 -60 -95l-7 -5q-37 1 -80 0l-3 8q38 58 80 135l8 5q23 -1 70 -1q50 0 75 1z" />
    <glyph glyph-name="Edieresis" unicode="&#xcb;" horiz-adv-x="542" 
d="M501 89l6 -7q-2 -20 -5 -75l-7 -7q-131 0 -416 -3l-5 7q6 158 6 316q0 264 -7 379l6 7q270 1 420 3l6 -7q-6 -60 -7 -78l-6 -7q-114 4 -299 5q-3 -92 -3 -213q108 -1 283 2l5 -7q-4 -31 -5 -77l-6 -7q-116 3 -277 3q-2 -91 0 -239q182 0 311 5zM443 878l7 -6
q-1 -36 -1 -99l-7 -8q-43 2 -109 2l-7 7q1 50 0 95l7 9q9 0 27 -0.5t27 -0.5t28 0.5t28 0.5zM208 879l7 -7q-2 -48 -1 -98l-7 -8h-107l-7 7v97l7 8q53 -1 108 1z" />
    <glyph glyph-name="Igrave" unicode="&#xcc;" horiz-adv-x="271" 
d="M189 709l7 -7q-5 -112 -5 -318q0 -240 8 -377l-6 -7q-79 -2 -111 -3l-6 7q4 122 4 243q0 301 -7 451l5 8q60 0 111 3zM135 901l6 -6q2 -4 4 -12q18 -55 48 -119l-4 -8q-11 0 -38 -0.5t-37 -0.5l-7 4q-67 86 -107 134l4 8h131z" />
    <glyph glyph-name="Iacute" unicode="&#xcd;" horiz-adv-x="271" 
d="M189 709l7 -7q-5 -112 -5 -318q0 -240 8 -377l-6 -7q-79 -2 -111 -3l-6 7q4 122 4 243q0 301 -7 451l5 8q60 0 111 3zM270 902l3 -8q-58 -71 -106 -135l-7 -4h-76l-4 7q31 64 51 132l6 7q71 0 133 1z" />
    <glyph glyph-name="Icircumflex" unicode="&#xce;" horiz-adv-x="271" 
d="M189 709l7 -7q-5 -112 -5 -318q0 -240 8 -377l-6 -7q-79 -2 -111 -3l-6 7q4 122 4 243q0 301 -7 451l5 8q60 0 111 3zM212 902l7 -4q27 -56 78 -134l-5 -7q-8 0 -23 -0.5t-22 -0.5q-34 -2 -52 -4l-7 5q-30 51 -59 97q-27 -40 -60 -95l-7 -5q-37 1 -80 0l-3 8
q38 58 80 135l8 5q23 -1 70 -1q50 0 75 1z" />
    <glyph glyph-name="Idieresis" unicode="&#xcf;" horiz-adv-x="271" 
d="M189 709l7 -7q-5 -112 -5 -318q0 -240 8 -377l-6 -7q-79 -2 -111 -3l-6 7q4 122 4 243q0 301 -7 451l5 8q60 0 111 3zM307 878l7 -6q-1 -36 -1 -99l-7 -8q-43 2 -109 2l-7 7q1 50 0 95l7 9q9 0 27 -0.5t27 -0.5t28 0.5t28 0.5zM72 879l7 -7q-2 -48 -1 -98l-7 -8h-107
l-7 7v97l7 8q53 -1 108 1z" />
    <glyph glyph-name="Eth" unicode="&#xd0;" horiz-adv-x="708" 
d="M4 330l-4 7q2 27 3 65l5 6q33 -1 72 -1q-3 214 -8 292l6 7l147 4q13 0 48 0.5t49 0.5q139 0 211 -48q125 -83 125 -291q0 -96 -26 -164q-22 -59 -57.5 -100t-78.5 -62t-79.5 -30.5t-80.5 -13.5q-40 -4 -187 -4l-67 -1l-6 7q5 102 5 328q-17 0 -77 -2zM389 339l-5 -6
q-15 0 -45 0.5t-45 0.5q-10 0 -104 -2q-1 -137 3 -250q60 -1 93.5 0t78.5 12t76 33q101 74 101 250q0 141 -72 203q-55 49 -166 49q-45 0 -112 -2q-2 -127 -3 -219q60 1 200 4l5 -7q-2 -21 -5 -66z" />
    <glyph glyph-name="Ntilde" unicode="&#xd1;" horiz-adv-x="708" 
d="M634 49l1 -42l-5 -7q-63 0 -123 -3l-8 7q-118 210 -178 315l-158 282l10 -343q1 -21 2 -62.5t2 -62.5q3 -91 5 -126l-6 -7q-48 0 -96 -3l-6 7q5 119 5 286q0 246 -6 409l5 7q81 1 129 3l10 -7q177 -317 204 -365l124 -219l-8 332q-4 167 -9 249l6 7q35 0 95 3l6 -7
q-4 -244 -4 -370q0 -142 3 -283zM506 888l10 -3q-3 -35 -4 -77l-3 -7q-43 -38 -82 -38q-26 0 -56 15l-27 10q-41 17 -66 17q-44 0 -77 -41l-9 4q3 56 3 78l5 8q38 35 79 35q23 0 65 -16l31 -12q36 -14 55 -14q45 0 76 41z" />
    <glyph glyph-name="Ograve" unicode="&#xd2;" horiz-adv-x="750" 
d="M374 -15q-154 1 -239 98t-85 265q0 170 87 271.5t240 101.5q149 0 236 -99t87 -272q0 -176 -87.5 -270.5t-238.5 -94.5zM376 69q53 0 93.5 22.5t64.5 63t35.5 91t11.5 109.5q0 127 -43 197q-53 86 -161 86q-109 0 -161 -85q-45 -70 -45 -198q0 -121 41 -192
q55 -94 164 -94zM375 901l6 -6q2 -4 4 -12q18 -55 48 -119l-4 -8q-11 0 -38 -0.5t-37 -0.5l-7 4q-67 86 -107 134l4 8h131z" />
    <glyph glyph-name="Oacute" unicode="&#xd3;" horiz-adv-x="750" 
d="M374 -15q-154 1 -239 98t-85 265q0 170 87 271.5t240 101.5q149 0 236 -99t87 -272q0 -176 -87.5 -270.5t-238.5 -94.5zM376 69q53 0 93.5 22.5t64.5 63t35.5 91t11.5 109.5q0 127 -43 197q-53 86 -161 86q-109 0 -161 -85q-45 -70 -45 -198q0 -121 41 -192
q55 -94 164 -94zM510 902l3 -8q-58 -71 -106 -135l-7 -4h-76l-4 7q31 64 51 132l6 7q71 0 133 1z" />
    <glyph glyph-name="Ocircumflex" unicode="&#xd4;" horiz-adv-x="750" 
d="M374 -15q-154 1 -239 98t-85 265q0 170 87 271.5t240 101.5q149 0 236 -99t87 -272q0 -176 -87.5 -270.5t-238.5 -94.5zM376 69q53 0 93.5 22.5t64.5 63t35.5 91t11.5 109.5q0 127 -43 197q-53 86 -161 86q-109 0 -161 -85q-45 -70 -45 -198q0 -121 41 -192
q55 -94 164 -94zM452 902l7 -4q27 -56 78 -134l-5 -7q-8 0 -22.5 -0.5t-22.5 -0.5q-34 -2 -52 -4l-7 5q-30 51 -59 97q-27 -40 -60 -95l-7 -5q-37 1 -80 0l-3 8q38 58 80 135l8 5q23 -1 70 -1q50 0 75 1z" />
    <glyph glyph-name="Otilde" unicode="&#xd5;" horiz-adv-x="750" 
d="M374 -15q-154 1 -239 98t-85 265q0 170 87 271.5t240 101.5q149 0 236 -99t87 -272q0 -176 -87.5 -270.5t-238.5 -94.5zM376 69q53 0 93.5 22.5t64.5 63t35.5 91t11.5 109.5q0 127 -43 197q-53 86 -161 86q-109 0 -161 -85q-45 -70 -45 -198q0 -121 41 -192
q55 -94 164 -94zM527 888l10 -3q-3 -35 -4 -77l-3 -7q-43 -38 -82 -38q-26 0 -56 15l-27 10q-41 17 -66 17q-44 0 -77 -41l-9 4q3 56 3 78l5 8q38 35 79 35q23 0 65 -16l31 -12q36 -14 55 -14q45 0 76 41z" />
    <glyph glyph-name="Odieresis" unicode="&#xd6;" horiz-adv-x="750" 
d="M374 -15q-154 1 -239 98t-85 265q0 170 87 271.5t240 101.5q149 0 236 -99t87 -272q0 -176 -87.5 -270.5t-238.5 -94.5zM376 69q53 0 93.5 22.5t64.5 63t35.5 91t11.5 109.5q0 127 -43 197q-53 86 -161 86q-109 0 -161 -85q-45 -70 -45 -198q0 -121 41 -192
q55 -94 164 -94zM549 878l7 -6q-1 -36 -1 -99l-7 -8q-43 2 -109 2l-7 7q1 50 0 95l7 9q9 0 27 -0.5t27 -0.5t28 0.5t28 0.5zM314 879l7 -7q-2 -48 -1 -98l-7 -8h-107l-7 7v97l7 8q53 -1 108 1z" />
    <glyph glyph-name="multiply" unicode="&#xd7;" horiz-adv-x="667" 
d="M590 91l-56 -55l-200 200l-202 -200l-55 55l201 201l-201 201l55 56l202 -201l200 201l56 -56l-200 -201z" />
    <glyph glyph-name="Oslash" unicode="&#xd8;" horiz-adv-x="750" 
d="M740 671v-8q-56 -51 -92 -86q52 -94 52 -221q0 -77 -19 -146q-14 -46 -36 -83t-44.5 -60t-52 -40t-51.5 -24.5t-49.5 -12t-39.5 -5t-28 -0.5q-95 0 -157 29q-43 19 -78 56q-55 -55 -77 -81h-8l-13 13l-15.5 15.5l-12.5 12.5l1 8q23 21 84 82q-54 92 -54 222
q0 169 82.5 274t239.5 105q154 0 240 -93q49 49 80 83h8zM567 493l-351 -350q55 -78 159 -78q59 0 101.5 26.5t65 72.5t32.5 96.5t10 109.5q0 63 -17 123zM187 203l352 353q-27 41 -63 61q-44 25 -98 25q-103 0 -160 -85q-53 -79 -53 -218q0 -68 22 -136z" />
    <glyph glyph-name="Ugrave" unicode="&#xd9;" horiz-adv-x="688" 
d="M608 709l6 -7q-3 -136 -3 -194q0 -75 1 -150l1 -90q0 -43 -2 -69.5t-15.5 -68.5t-40.5 -71q-68 -74 -206 -74q-146 0 -219 81q-37 43 -45.5 89.5t-8.5 149.5v102q0 162 -3 292l7 7q68 1 112 3l5 -7q-4 -104 -4 -382q0 -87 6.5 -130.5t30.5 -71.5q40 -49 125 -49
q103 0 142 76q10 20 15 49.5t6 53.5t1 74q0 247 -8 377l5 7q57 1 92 3zM344 901l6 -6q2 -4 4 -12q18 -55 48 -119l-4 -8q-10 0 -37 -0.5t-38 -0.5l-7 4q-67 86 -107 134l4 8h131z" />
    <glyph glyph-name="Uacute" unicode="&#xda;" horiz-adv-x="688" 
d="M608 709l6 -7q-3 -136 -3 -194q0 -75 1 -150l1 -90q0 -43 -2 -69.5t-15.5 -68.5t-40.5 -71q-68 -74 -206 -74q-146 0 -219 81q-37 43 -45.5 89.5t-8.5 149.5v102q0 162 -3 292l7 7q68 1 112 3l5 -7q-4 -104 -4 -382q0 -87 6.5 -130.5t30.5 -71.5q40 -49 125 -49
q103 0 142 76q10 20 15 49.5t6 53.5t1 74q0 247 -8 377l5 7q57 1 92 3zM479 902l3 -8q-58 -71 -106 -135l-7 -4h-76l-4 7q31 64 51 132l6 7q71 0 133 1z" />
    <glyph glyph-name="Ucircumflex" unicode="&#xdb;" horiz-adv-x="688" 
d="M608 709l6 -7q-3 -136 -3 -194q0 -75 1 -150l1 -90q0 -43 -2 -69.5t-15.5 -68.5t-40.5 -71q-68 -74 -206 -74q-146 0 -219 81q-37 43 -45.5 89.5t-8.5 149.5v102q0 162 -3 292l7 7q68 1 112 3l5 -7q-4 -104 -4 -382q0 -87 6.5 -130.5t30.5 -71.5q40 -49 125 -49
q103 0 142 76q10 20 15 49.5t6 53.5t1 74q0 247 -8 377l5 7q57 1 92 3zM421 902l7 -4q27 -56 78 -134l-5 -7q-7 0 -22 -0.5t-23 -0.5q-34 -2 -52 -4l-7 5q-30 51 -59 97q-27 -40 -60 -95l-7 -5q-37 1 -80 0l-3 8q38 58 80 135l8 5q23 -1 70 -1q50 0 75 1z" />
    <glyph glyph-name="Udieresis" unicode="&#xdc;" horiz-adv-x="688" 
d="M608 709l6 -7q-3 -136 -3 -194q0 -75 1 -150l1 -90q0 -43 -2 -69.5t-15.5 -68.5t-40.5 -71q-68 -74 -206 -74q-146 0 -219 81q-37 43 -45.5 89.5t-8.5 149.5v102q0 162 -3 292l7 7q68 1 112 3l5 -7q-4 -104 -4 -382q0 -87 6.5 -130.5t30.5 -71.5q40 -49 125 -49
q103 0 142 76q10 20 15 49.5t6 53.5t1 74q0 247 -8 377l5 7q57 1 92 3zM526 878l7 -6q-1 -36 -1 -99l-7 -8q-43 2 -109 2l-7 7q1 50 0 95l7 9q9 0 27 -0.5t27 -0.5q10 0 28 0.5t28 0.5zM291 879l7 -7q-2 -48 -1 -98l-7 -8h-107l-7 7v97l7 8q53 -1 108 1z" />
    <glyph glyph-name="Yacute" unicode="&#xdd;" horiz-adv-x="542" 
d="M331 6l-6 -7q-63 1 -110 -1l-6 7q4 77 4 238q0 34 -1 47q-124 241 -219 406l5 9l57 3q10 1 29.5 2.5t28.5 1.5l8 -4q1 -3 3.5 -8.5t4.5 -8.5q64 -133 149 -302q81 146 159 311l8 6q37 0 98 3l6 -8q-88 -156 -125 -222q-55 -98 -97 -181q-1 -33 -1 -76q0 -126 5 -216z
M406 902l3 -8q-58 -71 -106 -135l-7 -4h-76l-4 7q31 64 51 132l6 7q71 0 133 1z" />
    <glyph glyph-name="Thorn" unicode="&#xde;" 
d="M190 596l61 1q120 0 165 -15q52 -17 85 -52t44 -70.5t11 -73.5q0 -66 -32 -115t-83 -77q-35 -18 -85.5 -27t-80.5 -10t-84 0q2 -121 4 -150l-6 -7q-57 0 -108 -3l-6 7q4 124 4 244q0 300 -7 450l5 8q61 0 108 3l7 -7q-2 -40 -2 -106zM189 238h25q42 1 64.5 2.5t56 8
t55.5 22.5t37 42q17 30 17 72q0 34 -12 62q-33 69 -150 69q-44 0 -66 -1l-27 -2q0 -11 -1 -78t-1 -80q0 -8 1 -57.5t1 -59.5z" />
    <glyph glyph-name="germandbls" unicode="&#xdf;" 
d="M185 7l-5 -6q-63 -1 -108 -4l-5 7q3 57 4 191q0 14 1 99t1 101v135v39q1 23 2 35t6.5 38.5t15.5 44.5t29.5 39t47.5 36q50 27 122 27q88 0 141.5 -43.5t53.5 -116.5q0 -75 -55 -137l-30 -32q-23 -24 -28 -31.5t-5 -15.5q0 -16 29 -41q3 -3 9 -8t9 -8l43 -37
q34 -32 48.5 -48t28.5 -46t14 -65q0 -27 -9.5 -54t-30 -53.5t-59 -43t-90.5 -16.5q-47 0 -100 17l-5 8v76l8 5q45 -24 91 -24q47 0 68 24t21 51q0 23 -16.5 48.5t-73.5 75.5l-27 24q-63 56 -63 88q0 16 22 45l25 29q22 26 33 41t23.5 45t12.5 61q0 45 -25 74.5t-70 29.5
q-31 0 -52.5 -10.5t-32 -29t-14 -30t-6.5 -28.5q-7 -41 -7 -263q0 -230 8 -343z" />
    <glyph glyph-name="agrave" unicode="&#xe0;" horiz-adv-x="521" 
d="M452 305v-99q0 -122 6 -200l-5 -5q-18 0 -101 -4l-4 6l1 36q-65 -51 -140 -51t-122.5 46.5t-47.5 120.5q0 95 72.5 138t219.5 60l17 2q0 46 -9 62q-21 37 -83 37q-63 0 -152 -38l-8 5q1 24 2 43.5t1 29.5l6 6q92 33 173 33q139 0 167 -103q7 -28 7 -125zM349 281l-9 -2
q-33 -5 -50 -8t-44.5 -9.5t-41.5 -14t-30 -19.5t-22.5 -28.5t-6.5 -38.5q0 -5 0.5 -11.5t5.5 -22t14 -27t28.5 -21t46.5 -9.5q61 0 109 44v167zM259 741l7 -5q11 -40 54 -150l-5 -8q-38 0 -70 -2l-6 6q-49 78 -100 150l4 8q63 0 116 1z" />
    <glyph glyph-name="aacute" unicode="&#xe1;" horiz-adv-x="521" 
d="M452 305v-99q0 -122 6 -200l-5 -5q-18 0 -101 -4l-4 6l1 36q-65 -51 -140 -51t-122.5 46.5t-47.5 120.5q0 95 72.5 138t219.5 60l17 2q0 46 -9 62q-21 37 -83 37q-63 0 -152 -38l-8 5q1 24 2 43.5t1 29.5l6 6q92 33 173 33q139 0 167 -103q7 -28 7 -125zM349 281l-9 -2
q-33 -5 -50 -8t-44.5 -9.5t-41.5 -14t-30 -19.5t-22.5 -28.5t-6.5 -38.5q0 -5 0.5 -11.5t5.5 -22t14 -27t28.5 -21t46.5 -9.5q61 0 109 44v167zM387 742l4 -8q-51 -70 -103 -154l-7 -4q-27 1 -73 1l-4 7q49 118 61 153l6 5q22 -1 59 -1q38 0 57 1z" />
    <glyph glyph-name="acircumflex" unicode="&#xe2;" horiz-adv-x="521" 
d="M452 305v-99q0 -122 6 -200l-5 -5q-18 0 -101 -4l-4 6l1 36q-65 -51 -140 -51t-122.5 46.5t-47.5 120.5q0 95 72.5 138t219.5 60l17 2q0 46 -9 62q-21 37 -83 37q-63 0 -152 -38l-8 5q1 24 2 43.5t1 29.5l6 6q92 33 173 33q139 0 167 -103q7 -28 7 -125zM349 281l-9 -2
q-33 -5 -50 -8t-44.5 -9.5t-41.5 -14t-30 -19.5t-22.5 -28.5t-6.5 -38.5q0 -5 0.5 -11.5t5.5 -22t14 -27t28.5 -21t46.5 -9.5q61 0 109 44v167zM330 743l7 -5q54 -116 71 -148l-4 -9q-44 1 -89 -1l-6 5q-23 48 -52 102q-18 -33 -53 -103l-7 -6q-46 2 -73 0l-3 8
q38 73 74 150l8 6q18 0 63.5 0.5t63.5 0.5z" />
    <glyph glyph-name="atilde" unicode="&#xe3;" horiz-adv-x="521" 
d="M452 305v-99q0 -122 6 -200l-5 -5q-18 0 -101 -4l-4 6l1 36q-65 -51 -140 -51t-122.5 46.5t-47.5 120.5q0 95 72.5 138t219.5 60l17 2q0 46 -9 62q-21 37 -83 37q-63 0 -152 -38l-8 5q1 24 2 43.5t1 29.5l6 6q92 33 173 33q139 0 167 -103q7 -28 7 -125zM349 281l-9 -2
q-33 -5 -50 -8t-44.5 -9.5t-41.5 -14t-30 -19.5t-22.5 -28.5t-6.5 -38.5q0 -5 0.5 -11.5t5.5 -22t14 -27t28.5 -21t46.5 -9.5q61 0 109 44v167zM413 710l10 -3q-3 -34 -4 -77l-3 -7q-43 -38 -82 -38q-21 0 -56 14l-27 11q-41 17 -66 17q-44 0 -77 -41l-9 4q3 56 3 78l5 8
q38 35 79 35q23 0 65 -16l31 -12q36 -14 55 -14q46 0 76 41z" />
    <glyph glyph-name="adieresis" unicode="&#xe4;" horiz-adv-x="521" 
d="M452 305v-99q0 -122 6 -200l-5 -5q-18 0 -101 -4l-4 6l1 36q-65 -51 -140 -51t-122.5 46.5t-47.5 120.5q0 95 72.5 138t219.5 60l17 2q0 46 -9 62q-21 37 -83 37q-63 0 -152 -38l-8 5q1 24 2 43.5t1 29.5l6 6q92 33 173 33q139 0 167 -103q7 -28 7 -125zM349 281l-9 -2
q-33 -5 -50 -8t-44.5 -9.5t-41.5 -14t-30 -19.5t-22.5 -28.5t-6.5 -38.5q0 -5 0.5 -11.5t5.5 -22t14 -27t28.5 -21t46.5 -9.5q61 0 109 44v167zM426 725l7 -7q-1 -45 1 -99l-7 -8q-58 0 -107 -1l-6 8q1 54 0 99l8 7q51 -1 104 1zM221 725l7 -8q-1 -57 0 -99l-6 -8
q-43 1 -106 -2l-6 8q2 47 0 98l8 9q40 -1 103 2z" />
    <glyph glyph-name="aring" unicode="&#xe5;" horiz-adv-x="521" 
d="M452 305v-99q0 -122 6 -200l-5 -5q-18 0 -101 -4l-4 6l1 36q-65 -51 -140 -51t-122.5 46.5t-47.5 120.5q0 95 72.5 138t219.5 60l17 2q0 46 -9 62q-21 37 -83 37q-63 0 -152 -38l-8 5q1 24 2 43.5t1 29.5l6 6q92 33 173 33q139 0 167 -103q7 -28 7 -125zM349 281l-9 -2
q-33 -5 -50 -8t-44.5 -9.5t-41.5 -14t-30 -19.5t-22.5 -28.5t-6.5 -38.5q0 -5 0.5 -11.5t5.5 -22t14 -27t28.5 -21t46.5 -9.5q61 0 109 44v167zM387 678q1 -50 -30.5 -82.5t-89.5 -32.5q-56 0 -86 31.5t-30 77.5q0 48 32.5 80.5t86.5 32.5q52 0 84 -29.5t33 -77.5zM316 674
q0 28 -13 44.5t-33 16.5q-18 0 -32 -15.5t-14 -44.5q0 -30 13 -46.5t34 -16.5q20 0 31 15.5t12.5 26.5t1.5 20z" />
    <glyph glyph-name="ae" unicode="&#xe6;" horiz-adv-x="854" 
d="M789 37l-5 -7q-10 -7 -25 -13q-62 -29 -146 -29q-66 0 -116 19q-50 20 -85 60q-81 -79 -189 -79q-90 0 -141 49.5t-51 116.5q0 34 13 61.5t31 44.5t49 29.5t55.5 19t63 10t58.5 4t55 0.5v13q0 27 -2 42t-10.5 36t-30 31t-56.5 10q-73 0 -164 -42l-9 5q4 41 4 75l6 6
q108 34 182 34q109 0 149 -75q75 75 177 75q28 0 55 -6.5t60 -23t58 -53.5t36 -91q8 -45 6 -105l-6 -7q-30 0 -93 0.5t-95 0.5q-110 0 -165 -1q0 -45 9 -75q15 -51 57.5 -77.5t98.5 -26.5q84 0 165 60l10 -4q-5 -33 -9 -87zM715 324q-1 21 -6.5 40.5t-17 43.5t-36.5 38.5
t-60 14.5q-49 0 -89 -34t-49 -104q126 -1 258 1zM375 136q-14 42 -18 109h-54t-56 -4.5t-55.5 -13.5t-37 -27.5t-16.5 -45.5q0 -32 25.5 -57t73.5 -25q74 0 138 64z" />
    <glyph glyph-name="ccedilla" unicode="&#xe7;" horiz-adv-x="458" 
d="M193 -186l-4 8q28 56 64 131l7 6q11 0 37.5 -0.5t36.5 -0.5l4 -6q-25 -75 -41 -131l-7 -7q-45 1 -97 0zM438 123l8 -4q-7 -75 -8 -89l-7 -7q-70 -34 -138 -34q-112 0 -180.5 73.5t-68.5 191.5q0 122 68.5 200.5t182.5 78.5q61 0 137 -32l4 -7q-4 -39 -7 -79l-8 -4
q-54 39 -111 39q-66 0 -111 -50t-45 -142q0 -95 44.5 -140t110.5 -45t129 50z" />
    <glyph glyph-name="egrave" unicode="&#xe8;" horiz-adv-x="542" 
d="M477 127l8 -5q-6 -47 -8 -89l-6 -7q-72 -38 -160 -38q-125 0 -196 69.5t-71 198.5q0 133 69.5 205t173.5 72q106 0 164 -69q57 -68 54 -211l-7 -6q-169 1 -347 0q2 -82 38 -125q45 -54 129 -54q45 0 87 15q38 16 72 44zM402 324q-3 38 -10 59q-14 39 -43.5 58.5
t-65.5 19.5q-48 0 -86.5 -34.5t-45.5 -103.5q90 -1 251 1zM269 741l7 -5q11 -40 54 -150l-5 -8q-38 0 -70 -2l-6 6q-49 78 -100 150l4 8q63 0 116 1z" />
    <glyph glyph-name="eacute" unicode="&#xe9;" horiz-adv-x="542" 
d="M477 127l8 -5q-6 -47 -8 -89l-6 -7q-72 -38 -160 -38q-125 0 -196 69.5t-71 198.5q0 133 69.5 205t173.5 72q106 0 164 -69q57 -68 54 -211l-7 -6q-169 1 -347 0q2 -82 38 -125q45 -54 129 -54q45 0 87 15q38 16 72 44zM402 324q-3 38 -10 59q-14 39 -43.5 58.5
t-65.5 19.5q-48 0 -86.5 -34.5t-45.5 -103.5q90 -1 251 1zM397 742l4 -8q-51 -70 -103 -154l-7 -4q-27 1 -73 1l-4 7q49 118 61 153l6 5q22 -1 59 -1q38 0 57 1z" />
    <glyph glyph-name="ecircumflex" unicode="&#xea;" horiz-adv-x="542" 
d="M477 127l8 -5q-6 -47 -8 -89l-6 -7q-72 -38 -160 -38q-125 0 -196 69.5t-71 198.5q0 133 69.5 205t173.5 72q106 0 164 -69q57 -68 54 -211l-7 -6q-169 1 -347 0q2 -82 38 -125q45 -54 129 -54q45 0 87 15q38 16 72 44zM402 324q-3 38 -10 59q-14 39 -43.5 58.5
t-65.5 19.5q-48 0 -86.5 -34.5t-45.5 -103.5q90 -1 251 1zM350 743l7 -5q54 -116 71 -148l-4 -9q-44 1 -89 -1l-6 5q-23 48 -52 102q-18 -33 -53 -103l-7 -6q-46 2 -73 0l-3 8q38 73 74 150l8 6q17 0 63 0.5t64 0.5z" />
    <glyph glyph-name="edieresis" unicode="&#xeb;" horiz-adv-x="542" 
d="M477 127l8 -5q-6 -47 -8 -89l-6 -7q-72 -38 -160 -38q-125 0 -196 69.5t-71 198.5q0 133 69.5 205t173.5 72q106 0 164 -69q57 -68 54 -211l-7 -6q-169 1 -347 0q2 -82 38 -125q45 -54 129 -54q45 0 87 15q38 16 72 44zM402 324q-3 38 -10 59q-14 39 -43.5 58.5
t-65.5 19.5q-48 0 -86.5 -34.5t-45.5 -103.5q90 -1 251 1zM440 725l7 -7q-1 -45 1 -99l-7 -8q-58 0 -107 -1l-6 8q1 54 0 99l8 7q51 -1 104 1zM235 725l7 -8q-1 -57 0 -99l-6 -8q-43 1 -106 -2l-6 8q2 47 0 98l8 9q40 -1 103 2z" />
    <glyph glyph-name="igrave" unicode="&#xec;" horiz-adv-x="250" 
d="M185 7l-5 -6q-64 -1 -109 -4l-5 7q6 106 6 210q0 202 -10 286l5 7q66 11 108 20l10 -6q-6 -104 -6 -235q0 -177 6 -279zM123 741l7 -5q11 -40 54 -150l-5 -8q-38 0 -70 -2l-6 6q-49 78 -100 150l4 8q63 0 116 1z" />
    <glyph glyph-name="iacute" unicode="&#xed;" horiz-adv-x="250" 
d="M185 7l-5 -6q-64 -1 -109 -4l-5 7q6 106 6 210q0 202 -10 286l5 7q66 11 108 20l10 -6q-6 -104 -6 -235q0 -177 6 -279zM251 742l4 -8q-51 -70 -103 -154l-7 -4q-27 1 -73 1l-4 7q49 118 61 153l6 5q22 -1 59 -1q38 0 57 1z" />
    <glyph glyph-name="icircumflex" unicode="&#xee;" horiz-adv-x="250" 
d="M185 7l-5 -6q-64 -1 -109 -4l-5 7q6 106 6 210q0 202 -10 286l5 7q66 11 108 20l10 -6q-6 -104 -6 -235q0 -177 6 -279zM194 743l7 -5q54 -116 71 -148l-4 -9q-44 1 -89 -1l-6 5q-23 48 -52 102q-18 -33 -53 -103l-7 -6q-46 2 -73 0l-3 8q38 73 74 150l8 6q17 0 63 0.5
t64 0.5z" />
    <glyph glyph-name="idieresis" unicode="&#xef;" horiz-adv-x="250" 
d="M185 7l-5 -6q-64 -1 -109 -4l-5 7q6 106 6 210q0 202 -10 286l5 7q66 11 108 20l10 -6q-6 -104 -6 -235q0 -177 6 -279zM279 725l7 -7q-1 -45 1 -99l-7 -8q-58 0 -107 -1l-6 8q1 54 0 99l8 7q51 -1 104 1zM74 725l7 -8q-1 -57 0 -99l-6 -8q-43 1 -106 -2l-6 8q2 47 0 98
l8 9q40 -1 103 2z" />
    <glyph glyph-name="eth" unicode="&#xf0;" 
d="M157 589l-25 60l3 8q62 10 153 34q-34 45 -73 73l3 9q8 1 25 3.5t25 4.5l42 8l12 -4q33 -30 63 -69l45 12q45 12 53 15l11 -5q7 -17 28 -60l-5 -9q-43 -6 -87 -17q21 -34 34 -58.5t33.5 -73.5t31 -109.5t10.5 -128.5q0 -112 -37 -176q-28 -52 -84 -85t-135 -33
q-109 0 -173.5 70t-64.5 203q0 108 48 176q36 52 90 75t104 23q57 0 99 -28q-22 66 -56 120q-2 -1 -35.5 -9t-72.5 -18t-56 -15zM425 330q-22 127 -130 127q-140 0 -140 -199q0 -146 86 -184q24 -11 54 -11q136 1 136 193q0 30 -6 74z" />
    <glyph glyph-name="ntilde" unicode="&#xf1;" 
d="M519 7l-6 -6q-57 -1 -100 -4l-7 7q0 6 0.5 17t0.5 16q1 49 1 147q0 160 -6 185q-19 76 -90 76q-61 0 -133 -56q-1 -227 8 -382l-6 -6q-61 -1 -105 -4l-5 7q3 168 3 184q0 151 -12 312l6 7q26 5 106 20l7 -7l-1 -52q90 62 176 62q49 0 83 -19q41 -24 58 -65
q14 -31 15 -122v-117q4 -165 7 -200zM445 710l10 -3q-3 -34 -4 -77l-3 -7q-43 -38 -82 -38q-21 0 -56 14l-27 11q-41 17 -66 17q-44 0 -77 -41l-9 4q3 56 3 78l5 8q38 35 79 35q23 0 65 -16l31 -12q36 -14 55 -14q46 0 76 41z" />
    <glyph glyph-name="ograve" unicode="&#xf2;" 
d="M539 268q0 -58 -9 -97q-16 -72 -65 -121q-61 -61 -173 -61q-114 0 -179 67q-69 70 -69 204t69 203q68 70 186 70q116 0 179 -72q57 -66 61 -193zM430 264q0 85 -29 136q-35 57 -107 57q-74 0 -110 -58q-30 -46 -30 -141q0 -140 80 -181q26 -13 59 -13q79 0 114 67
q27 52 23 133zM291 741l7 -5q11 -40 54 -150l-5 -8q-38 0 -70 -2l-6 6q-49 78 -100 150l4 8q63 0 116 1z" />
    <glyph glyph-name="oacute" unicode="&#xf3;" 
d="M539 268q0 -58 -9 -97q-16 -72 -65 -121q-61 -61 -173 -61q-114 0 -179 67q-69 70 -69 204t69 203q68 70 186 70q116 0 179 -72q57 -66 61 -193zM430 264q0 85 -29 136q-35 57 -107 57q-74 0 -110 -58q-30 -46 -30 -141q0 -140 80 -181q26 -13 59 -13q79 0 114 67
q27 52 23 133zM419 742l4 -8q-51 -70 -103 -154l-7 -4q-27 1 -73 1l-4 7q49 118 61 153l6 5q22 -1 59 -1q38 0 57 1z" />
    <glyph glyph-name="ocircumflex" unicode="&#xf4;" 
d="M539 268q0 -58 -9 -97q-16 -72 -65 -121q-61 -61 -173 -61q-114 0 -179 67q-69 70 -69 204t69 203q68 70 186 70q116 0 179 -72q57 -66 61 -193zM430 264q0 85 -29 136q-35 57 -107 57q-74 0 -110 -58q-30 -46 -30 -141q0 -140 80 -181q26 -13 59 -13q79 0 114 67
q27 52 23 133zM362 743l7 -5q54 -116 71 -148l-4 -9q-44 1 -89 -1l-6 5q-23 48 -52 102q-18 -33 -53 -103l-7 -6q-46 2 -73 0l-3 8q38 73 74 150l8 6q17 0 63 0.5t64 0.5z" />
    <glyph glyph-name="otilde" unicode="&#xf5;" 
d="M539 268q0 -58 -9 -97q-16 -72 -65 -121q-61 -61 -173 -61q-114 0 -179 67q-69 70 -69 204t69 203q68 70 186 70q116 0 179 -72q57 -66 61 -193zM430 264q0 85 -29 136q-35 57 -107 57q-74 0 -110 -58q-30 -46 -30 -141q0 -140 80 -181q26 -13 59 -13q79 0 114 67
q27 52 23 133zM445 710l10 -3q-3 -34 -4 -77l-3 -7q-43 -38 -82 -38q-21 0 -56 14l-27 11q-41 17 -66 17q-44 0 -77 -41l-9 4q3 56 3 78l5 8q38 35 79 35q23 0 65 -16l31 -12q36 -14 55 -14q46 0 76 41z" />
    <glyph glyph-name="odieresis" unicode="&#xf6;" 
d="M539 268q0 -58 -9 -97q-16 -72 -65 -121q-61 -61 -173 -61q-114 0 -179 67q-69 70 -69 204t69 203q68 70 186 70q116 0 179 -72q57 -66 61 -193zM430 264q0 85 -29 136q-35 57 -107 57q-74 0 -110 -58q-30 -46 -30 -141q0 -140 80 -181q26 -13 59 -13q79 0 114 67
q27 52 23 133zM448 725l7 -7q-1 -45 1 -99l-7 -8q-58 0 -107 -1l-6 8q1 54 0 99l8 7q51 -1 104 1zM243 725l7 -8q-1 -57 0 -99l-6 -8q-43 1 -106 -2l-6 8q2 47 0 98l8 9q40 -1 103 2z" />
    <glyph glyph-name="divide" unicode="&#xf7;" horiz-adv-x="667" 
d="M391 145q0 -22 -16 -39t-42 -17q-21 0 -38 15.5t-17 40.5q0 22 15.5 39.5t41.5 17.5t41 -17t15 -40zM391 435q0 -22 -16 -39t-42 -17q-21 0 -38 15.5t-17 40.5q0 22 15.5 39.5t41.5 17.5t41 -17t15 -40zM667 330v-79h-667v79h667z" />
    <glyph glyph-name="oslash" unicode="&#xf8;" 
d="M583 488l-1 -8q-40 -32 -74 -62q16 -32 24 -71q8 -40 8 -92q0 -116 -52 -182q-65 -85 -194 -85q-64 0 -112 20q-44 20 -74 55q-43 -40 -68 -66h-10q-7 7 -17.5 18.5t-18.5 19.5l-1 8q66 56 81 69q-15 36 -22 79q-7 41 -7 79q0 122 67.5 193t183.5 71q109 0 178 -66
q37 33 65 61h8q9 -10 19 -21.5t17 -19.5zM425 345l-247 -220q5 -12 7 -15q32 -52 107 -52q142 0 142 190q0 48 -9 97zM158 186l244 218q-35 58 -108 58q-34 0 -64 -14q-78 -42 -78 -183q0 -41 6 -79z" />
    <glyph glyph-name="ugrave" unicode="&#xf9;" 
d="M506 524l6 -7q-3 -114 -3 -228q0 -133 5 -240q0 -14 2 -42l-4 -6q-19 0 -102 -4l-6 6l1 42q-78 -57 -157 -57q-70 0 -114 34q-30 24 -45 64.5t-17 68.5t-3 82v62q-2 164 -5 213l5 7q59 1 103 5l6 -7l-4 -219v-24v-33v-38q1 -24 3 -39.5t11 -40.5t32 -38.5t58 -13.5
q59 0 125 52q1 54 1 158q0 156 -7 232l6 7q63 1 103 4zM291 741l7 -5q11 -40 54 -150l-5 -8q-38 0 -70 -2l-6 6q-49 78 -100 150l4 8q63 0 116 1z" />
    <glyph glyph-name="uacute" unicode="&#xfa;" 
d="M506 524l6 -7q-3 -114 -3 -228q0 -133 5 -240q0 -14 2 -42l-4 -6q-19 0 -102 -4l-6 6l1 42q-78 -57 -157 -57q-70 0 -114 34q-30 24 -45 64.5t-17 68.5t-3 82v62q-2 164 -5 213l5 7q59 1 103 5l6 -7l-4 -219v-24v-33v-38q1 -24 3 -39.5t11 -40.5t32 -38.5t58 -13.5
q59 0 125 52q1 54 1 158q0 156 -7 232l6 7q63 1 103 4zM419 742l4 -8q-51 -70 -103 -154l-7 -4q-27 1 -73 1l-4 7q49 118 61 153l6 5q22 -1 59 -1q38 0 57 1z" />
    <glyph glyph-name="ucircumflex" unicode="&#xfb;" 
d="M506 524l6 -7q-3 -114 -3 -228q0 -133 5 -240q0 -14 2 -42l-4 -6q-19 0 -102 -4l-6 6l1 42q-78 -57 -157 -57q-70 0 -114 34q-30 24 -45 64.5t-17 68.5t-3 82v62q-2 164 -5 213l5 7q59 1 103 5l6 -7l-4 -219v-24v-33v-38q1 -24 3 -39.5t11 -40.5t32 -38.5t58 -13.5
q59 0 125 52q1 54 1 158q0 156 -7 232l6 7q63 1 103 4zM362 743l7 -5q54 -116 71 -148l-4 -9q-44 1 -89 -1l-6 5q-23 48 -52 102q-18 -33 -53 -103l-7 -6q-46 2 -73 0l-3 8q38 73 74 150l8 6q17 0 63 0.5t64 0.5z" />
    <glyph glyph-name="udieresis" unicode="&#xfc;" 
d="M506 524l6 -7q-3 -114 -3 -228q0 -133 5 -240q0 -14 2 -42l-4 -6q-19 0 -102 -4l-6 6l1 42q-78 -57 -157 -57q-70 0 -114 34q-30 24 -45 64.5t-17 68.5t-3 82v62q-2 164 -5 213l5 7q59 1 103 5l6 -7l-4 -219v-24v-33v-38q1 -24 3 -39.5t11 -40.5t32 -38.5t58 -13.5
q59 0 125 52q1 54 1 158q0 156 -7 232l6 7q63 1 103 4zM448 725l7 -7q-1 -45 1 -99l-7 -8q-58 0 -107 -1l-6 8q1 54 0 99l8 7q51 -1 104 1zM243 725l7 -8q-1 -57 0 -99l-6 -8q-43 1 -106 -2l-6 8q2 47 0 98l8 9q40 -1 103 2z" />
    <glyph glyph-name="yacute" unicode="&#xfd;" horiz-adv-x="458" 
d="M462 523l3 -9q-72 -177 -178 -475q-59 -173 -82 -275l-9 -8q-67 -1 -106 -3l-4 7l4 7q8 16 16.5 35.5t18 43t15.5 36.5q41 96 42 100q1 2 3 8q0 9 -80.5 225.5t-111.5 291.5l4 9q81 6 111 10l6 -6q36 -122 62 -197l63 -191l57 176q47 153 62 208l7 6q52 0 97 1zM355 742
l4 -8q-51 -70 -103 -154l-7 -4q-27 1 -73 1l-4 7q49 118 61 153l6 5q22 -1 59 -1q38 0 57 1z" />
    <glyph glyph-name="thorn" unicode="&#xfe;" 
d="M64 771l5 7l105 20l6 -6q-2 -137 -3 -314q65 55 146 55q94 0 155 -69t61 -176q0 -124 -81.5 -206t-233.5 -82q-17 0 -45 2q2 -134 9 -240l-6 -6l-106 -3l-5 6q3 58 3 173v546q0 92 -4 216q-2 34 -6 77zM179 77q39 -3 42 -3q98 0 153 56.5t55 150.5q0 77 -37.5 122.5
t-98.5 45.5q-52 0 -115 -43q0 -26 -0.5 -77t-0.5 -76q0 -60 2 -176z" />
    <glyph glyph-name="ydieresis" unicode="&#xff;" horiz-adv-x="458" 
d="M462 523l3 -9q-72 -177 -178 -475q-59 -173 -82 -275l-9 -8q-67 -1 -106 -3l-4 7l4 7q8 16 16.5 35.5t18 43t15.5 36.5q41 96 42 100q1 2 3 8q0 9 -80.5 225.5t-111.5 291.5l4 9q81 6 111 10l6 -6q36 -122 62 -197l63 -191l57 176q47 153 62 208l7 6q52 0 97 1zM383 725
l7 -7q-1 -45 1 -99l-7 -8q-58 0 -107 -1l-6 8q1 54 0 99l8 7q51 -1 104 1zM178 725l7 -8q-1 -57 0 -99l-6 -8q-43 1 -106 -2l-6 8q2 47 0 98l8 9q40 -1 103 2z" />
    <glyph glyph-name="dotlessi" unicode="&#x131;" horiz-adv-x="250" 
d="M185 7l-5 -6q-64 -1 -109 -4l-5 7q6 106 6 210q0 202 -10 286l5 7q66 11 108 20l10 -6q-6 -104 -6 -235q0 -177 6 -279z" />
    <glyph glyph-name="Lslash" unicode="&#x141;" horiz-adv-x="479" 
d="M466 92l6 -8q-2 -19 -3 -44t-2 -33l-5 -7q-193 0 -381 -3l-6 7q1 36 6 311q-40 -23 -74 -46l-7 4q1 21 2.5 44t1.5 34l4 7q28 17 72 43q0 165 -8 298l7 7q73 1 115 3l6 -6q-6 -114 -7 -235q34 19 112 65l54 30l8 -2q-3 -32 -6 -79l-5 -7q-85 -46 -164 -92
q-2 -120 -2 -149q0 -59 2 -147q108 0 274 5z" />
    <glyph glyph-name="lslash" unicode="&#x142;" horiz-adv-x="250" 
d="M184 7l-6 -6q-18 0 -105 -4l-5 7q8 204 5 371q-29 -17 -63 -41l-8 4v82l5 8q29 14 66 36q0 184 -10 307l5 6q60 10 109 21l6 -7q-4 -84 -5 -264q32 20 65 42l8 -6q-3 -42 -2 -84l-6 -7q-27 -14 -65 -38q-1 -63 0 -199.5t6 -227.5z" />
    <glyph glyph-name="OE" unicode="&#x152;" horiz-adv-x="958" 
d="M917 89l6 -6q-4 -29 -5 -76l-6 -7h-132q-70 0 -119 -2h-235q-36 0 -60 1.5t-66 8.5t-80 26.5t-70 49.5q-100 95 -100 273q0 54 11.5 104.5t37.5 99.5t75.5 85.5t117.5 51.5q52 12 164 12l186 -2q13 0 90 -0.5t92 -0.5q55 0 92 1l5 -7q-4 -45 -8 -78l-6 -6q-134 5 -295 5
q-3 -135 -3 -211q145 0 279 2l5 -6q-2 -22 -3 -42.5t-2 -34.5l-6 -6q-129 3 -273 3q-2 -122 1 -243q147 0 307 5zM263 122q58 -40 175 -40q24 0 62 2q3 51 3 259q0 264 -2 282q-38 2 -71 2q-119 0 -179 -49q-83 -72 -83 -230q0 -160 95 -226z" />
    <glyph glyph-name="oe" unicode="&#x153;" horiz-adv-x="917" 
d="M850 126l8 -5q-6 -45 -9 -88l-5 -6q-75 -39 -164 -39q-139 0 -202 94q-68 -94 -196 -94q-121 0 -185 83q-53 68 -53 192q0 77 22 132.5t59.5 84t77 41.5t82.5 13q74 0 116.5 -26t76.5 -71q78 97 185 97q61 0 106 -24q90 -49 107 -173q4 -40 4 -60q0 -13 -1 -29l-6 -6
q-124 2 -199 2q-102 0 -153 -1q3 -51 10 -73q16 -51 58 -77t97 -26q86 0 164 59zM776 319q0 43 -10 71q-13 33 -40.5 52.5t-67.5 19.5q-58 0 -95 -38.5t-42 -104.5q131 -1 255 0zM424 263q0 22 -1.5 38.5t-5.5 42t-13.5 43.5t-23.5 35.5t-37.5 27t-54.5 9.5q-39 0 -67 -18
t-41 -40t-20 -55t-8 -48.5t-1 -34.5q0 -200 140 -200q137 0 133 200z" />
    <glyph glyph-name="Scaron" unicode="&#x160;" horiz-adv-x="542" 
d="M282 422l50 -22q38 -17 59 -28.5t51.5 -35.5t45 -58.5t14.5 -79.5q0 -90 -66.5 -151.5t-190.5 -61.5q-110 0 -198 44l-4 7q2 21 8 92l10 4q87 -59 176 -59q73 0 109.5 32t36.5 81q0 47 -31 73t-92 49l-50 22q-30 14 -45.5 22t-42.5 26.5t-41 37t-25.5 48t-11.5 64.5
q0 61 31 105q61 88 210 88q80 0 180 -32l5 -8q-3 -30 -8 -88l-8 -4q-29 15 -46.5 22.5t-50.5 15.5t-68 8q-62 0 -98.5 -27t-36.5 -71q0 -47 51 -79q14 -9 77 -36zM208 753l-6 4q-21 42 -78 133l4 7q7 1 22 1t23 1t26 2t26 1l8 -4q27 -47 58 -97q35 51 60 95l7 4q37 -1 81 0
l3 -7q-40 -61 -81 -135l-7 -5q-12 0 -36 0.5t-35 0.5q-13 0 -38 -0.5t-37 -0.5z" />
    <glyph glyph-name="scaron" unicode="&#x161;" horiz-adv-x="437" 
d="M245 315l36 -11q17 -6 29.5 -10.5t33.5 -17t34 -27.5t23.5 -40t10.5 -55q0 -73 -56 -118q-57 -48 -160 -48q-74 0 -137 25l-15 6l-5 9q4 34 6 84l10 3q62 -48 139 -48q54 0 81 23.5t27 51.5q0 22 -15 37.5t-33 23.5t-56 20l-32 11q-23 7 -39 14.5t-40.5 23.5t-38 43.5
t-13.5 63.5q0 74 57 114t145 40q72 0 144 -28l5 -7q-7 -60 -8 -79l-9 -4q-63 40 -129 40q-24 0 -43 -5q-55 -15 -55 -60q0 -29 23.5 -43.5t79.5 -31.5zM166 578l-7 5q-54 116 -71 148l4 9q44 -1 89 1l6 -5q23 -48 52 -102q33 63 53 103l7 6q46 -2 73 0l3 -8
q-34 -63 -75 -150l-7 -6q-17 0 -63 -0.5t-64 -0.5z" />
    <glyph glyph-name="Ydieresis" unicode="&#x178;" horiz-adv-x="542" 
d="M331 6l-6 -7q-63 1 -110 -1l-6 7q4 77 4 238q0 34 -1 47q-124 241 -219 406l5 9l57 3q10 1 29.5 2.5t28.5 1.5l8 -4q1 -3 3.5 -8.5t4.5 -8.5q64 -133 149 -302q81 146 159 311l8 6q37 0 98 3l6 -8q-88 -156 -125 -222q-55 -98 -97 -181q-1 -33 -1 -76q0 -126 5 -216z
M443 878l7 -6q-1 -36 -1 -99l-7 -8q-43 2 -109 2l-7 7q1 50 0 95l7 9q9 0 27 -0.5t27 -0.5t28 0.5t28 0.5zM208 879l7 -7q-2 -48 -1 -98l-7 -8h-107l-7 7v97l7 8q53 -1 108 1z" />
    <glyph glyph-name="Zcaron" unicode="&#x17d;" horiz-adv-x="521" 
d="M496 4l-7 -5q-124 1 -389 1q-50 0 -90 -1l-6 9q87 157 222 409l110 207q-155 0 -302 -2l-5 7q5 40 7 72l6 7q204 -2 307 -2q76 0 144 2l5 -10q-74 -128 -168 -302q-86 -158 -168 -315q158 0 336 5l6 -6q-4 -26 -8 -76zM198 753l-6 4q-21 42 -78 133l4 7q8 1 23 1t22 1
q9 1 26 2t26 1l8 -4q27 -47 58 -97q35 51 60 95l7 4q37 -1 81 0l3 -7q-40 -61 -81 -135l-7 -5q-12 0 -36 0.5t-35 0.5q-13 0 -38 -0.5t-37 -0.5z" />
    <glyph glyph-name="zcaron" unicode="&#x17e;" horiz-adv-x="437" 
d="M410 5l-6 -5q-14 0 -97 -0.5t-99 -0.5q-130 0 -191 -2l-4 9q137 228 248 436q-161 -1 -220 -4l-5 6q5 42 7 69l6 6q187 0 361 3l5 -8q-97 -158 -243 -435q141 2 240 6l5 -6q-4 -33 -7 -74zM166 578l-7 5q-54 116 -71 148l4 9q44 -1 89 1l6 -5q23 -48 52 -102
q33 63 53 103l7 6q46 -2 73 0l3 -8q-34 -63 -75 -150l-7 -6q-17 0 -63 -0.5t-64 -0.5z" />
    <glyph glyph-name="florin" unicode="&#x192;" horiz-adv-x="375" 
d="M317 349l-7 -8q-30 2 -88 3q-3 -23 -18.5 -201.5t-17.5 -194.5q-3 -24 -6.5 -40t-14 -37.5t-26 -35t-43.5 -23t-65 -9.5q-35 0 -72 8l-6 8q7 38 10 69l8 5q30 -6 41 -6q56 0 65 53q8 32 17 132l24 272q-6 0 -38 -0.5t-38 -0.5l-7 6q6 31 11 67l7 7q31 -3 71 -3l6 65
q6 72 14.5 107t32.5 59q38 38 113 38q38 0 73 -8l6 -8q-5 -29 -10 -69l-8 -6q-19 7 -41 7q-35 0 -52 -21q-15 -19 -25 -112l-5 -53q65 0 95 2l6 -8q-3 -15 -6.5 -35t-5.5 -29z" />
    <glyph glyph-name="circumflex" unicode="&#x2c6;" horiz-adv-x="292" 
d="M211 743l7 -5q54 -116 71 -148l-4 -9q-44 1 -89 -1l-6 5q-23 48 -52 102q-18 -33 -53 -103l-7 -6q-46 2 -73 0l-3 8q38 73 74 150l8 6q18 0 64 0.5t63 0.5z" />
    <glyph glyph-name="caron" unicode="&#x2c7;" horiz-adv-x="292" 
d="M80 578l-7 5q-54 116 -71 148l4 9q44 -1 89 1l6 -5q23 -48 52 -102q33 63 53 103l7 6q46 -2 73 0l3 -8q-34 -63 -75 -150l-7 -6q-17 0 -63 -0.5t-64 -0.5z" />
    <glyph glyph-name="breve" unicode="&#x2d8;" horiz-adv-x="292" 
d="M273 734l6 -6q-3 -54 -17 -79q-34 -60 -118 -60q-77 0 -113 56q-16 28 -19 78l7 7q40 0 66 2l6 -5q4 -56 57 -56q18 0 29.5 6.5t16 16.5t6 17t1.5 13l5 6q33 1 67 4z" />
    <glyph glyph-name="dotaccent" unicode="&#x2d9;" horiz-adv-x="292" 
d="M198 723l6 -6q-1 -45 0 -97l-6 -7q-56 0 -104 -1l-6 7q2 50 1 97l6 6q57 0 103 1z" />
    <glyph glyph-name="ring" unicode="&#x2da;" horiz-adv-x="292" 
d="M264 678q1 -50 -30.5 -82.5t-89.5 -32.5q-56 0 -86 31.5t-30 77.5q0 48 32.5 80.5t86.5 32.5q52 0 84 -29.5t33 -77.5zM193 674q0 28 -13 44.5t-33 16.5q-18 0 -32 -15.5t-14 -44.5q0 -30 13 -46.5t34 -16.5q20 0 31 15.5t12.5 26.5t1.5 20z" />
    <glyph glyph-name="ogonek" unicode="&#x2db;" horiz-adv-x="292" 
d="M182 24l27 -24q-27 -6 -52.5 -26.5t-25.5 -44.5q0 -18 13 -27t30 -9q33 0 62 29l8 -3q-3 -25 -6 -65l-5 -9q-50 -22 -89 -22q-46 0 -71 24.5t-25 56.5q0 79 134 120z" />
    <glyph glyph-name="tilde" unicode="&#x2dc;" horiz-adv-x="292" 
d="M298 710l10 -3q-3 -34 -4 -77l-3 -7q-43 -38 -82 -38q-21 0 -56 14l-27 11q-41 17 -66 17q-44 0 -77 -41l-9 4q3 56 3 78l5 8q38 35 79 35q23 0 65 -16l31 -12q36 -14 55 -14q46 0 76 41z" />
    <glyph glyph-name="hungarumlaut" unicode="&#x2dd;" horiz-adv-x="292" 
d="M158 741l3 -7q-58 -81 -102 -154l-7 -5q-31 2 -69 2l-5 7q41 91 61 153l6 5q42 -2 58 -2q9 0 27 0.5t28 0.5zM311 741l4 -7q-51 -70 -103 -154l-7 -5q-31 2 -69 2l-5 7q33 69 61 153l6 5q42 -2 58 -2q9 0 27 0.5t28 0.5z" />
    <glyph glyph-name="endash" unicode="&#x2013;" 
d="M549 325l6 -6q-6 -47 -8 -73l-7 -7q-178 1 -505 -1l-6 7q5 45 8 73l8 6q82 -2 182 -2q217 0 322 3z" />
    <glyph glyph-name="emdash" unicode="&#x2014;" horiz-adv-x="729" 
d="M695 326l5 -5q-2 -23 -7 -76l-6 -6q-19 0 -137.5 1t-141.5 1q-276 0 -374 -3l-5 6q6 54 7 74l6 6q208 -2 261 -2q271 0 392 4z" />
    <glyph glyph-name="quoteleft" unicode="&#x2018;" horiz-adv-x="229" 
d="M31 494l-6 7q42 95 96 254l6 7q44 1 72 3l5 -7q-44 -166 -55 -251l-6 -7q-46 -1 -112 -6z" />
    <glyph glyph-name="quoteright" unicode="&#x2019;" horiz-adv-x="229" 
d="M198 765l6 -7q-43 -96 -95 -253l-7 -7q-15 -1 -34.5 -2t-37.5 -2l-5 7q44 165 55 251l6 7q71 3 112 6z" />
    <glyph glyph-name="quotesinglbase" unicode="&#x201a;" horiz-adv-x="229" 
d="M186 119l4 -8q-44 -107 -93 -253l-7 -7q-11 0 -71 -2l-4 6q40 166 53 253l6 7q40 0 112 4z" />
    <glyph glyph-name="quotedblleft" unicode="&#x201c;" horiz-adv-x="396" 
d="M28 492l-6 7q59 145 95 257l7 6q42 1 72 3l5 -7q-39 -149 -56 -253l-7 -6q-66 -2 -110 -7zM201 493l-5 7q48 112 95 253l6 7q15 1 34.5 2t37.5 2l5 -7q-42 -158 -55 -251l-6 -7q-76 -3 -112 -6z" />
    <glyph glyph-name="quotedblright" unicode="&#x201d;" horiz-adv-x="396" 
d="M368 765l6 -6q-67 -166 -95 -258l-7 -6q-42 -1 -72 -3l-5 7q36 137 56 253l7 6q64 2 110 7zM195 764l5 -7q-45 -101 -95 -253l-7 -7q-13 -1 -32.5 -2t-38.5 -2l-5 7q44 174 55 251l6 7q71 3 112 6z" />
    <glyph glyph-name="quotedblbase" unicode="&#x201e;" horiz-adv-x="396" 
d="M368 120l6 -6q-59 -145 -95 -257l-7 -6q-17 -1 -36 -2t-36 -2l-5 7q36 141 56 253l7 6q43 2 110 7zM195 119l5 -7q-45 -101 -95 -253l-7 -7q-9 0 -71 -4l-5 7q44 174 55 251l6 7q71 3 112 6z" />
    <glyph glyph-name="dagger" unicode="&#x2020;" horiz-adv-x="479" 
d="M453 444l-6 -6q-43 1 -159 3q-1 -59 -1 -187q0 -258 7 -423l-5 -6q-54 0 -100 -1l-5 6q5 85 7 308t1 303q-99 -1 -167 -3l-5 7q4 39 5 69l6 7q74 -1 162 -1q-1 146 -10 236l7 8q49 0 95 1l6 -7q-6 -116 -2 -239q109 1 164 3l6 -6q-5 -57 -6 -72z" />
    <glyph glyph-name="daggerdbl" unicode="&#x2021;" horiz-adv-x="479" 
d="M454 444l-7 -6q-42 1 -159 3q-3 -148 -1 -275q105 1 167 3l5 -6q-3 -28 -5 -72l-7 -6q-43 1 -160 3q1 -135 6 -257l-5 -6q-52 0 -97 -1l-5 7q4 79 8 257q-99 -1 -169 -3l-5 7q4 39 5 69l6 7q74 -1 164 -1q-1 39 -1 274q-99 -1 -169 -3l-5 7q4 39 5 69l6 7q74 -1 163 -1
q-2 156 -9 236l6 8q49 0 92 1l7 -7q-3 -56 -3 -239q105 1 167 3l5 -6q-3 -28 -5 -72z" />
    <glyph glyph-name="bullet" unicode="&#x2022;" horiz-adv-x="333" 
d="M297 353q0 -55 -36 -92.5t-92 -37.5q-58 0 -95 38.5t-37 91.5t38 91.5t93 38.5t92 -37t37 -93z" />
    <glyph glyph-name="ellipsis" unicode="&#x2026;" horiz-adv-x="1000" 
d="M891 51q0 -24 -16 -40.5t-40 -16.5q-25 0 -41 17t-16 40t16.5 39.5t40.5 16.5q26 0 41 -17t15 -39zM557 51q0 -25 -17 -41t-38 -16q-24 0 -41 16t-17 41q0 24 16.5 40t40.5 16t39.5 -16t16.5 -40zM223 51q-1 -27 -17.5 -42t-38.5 -15q-23 0 -40 16t-17 40t16.5 40.5
t41.5 16.5q24 0 40 -17t15 -39z" />
    <glyph glyph-name="perthousand" unicode="&#x2030;" horiz-adv-x="1312" 
d="M889 221q0 -25 -1.5 -45.5t-11 -57t-26 -61.5t-51 -44.5t-82.5 -19.5q-168 0 -168 226q0 84 25 136q44 93 148 93q47 0 81 -20.5t50 -46.5t25 -63.5t10 -56t1 -40.5zM811 223q-2 167 -90 167q-93 0 -93 -173q0 -165 92 -165q51 0 71 47q20 41 20 124zM368 457
q0 -25 -1.5 -45t-11 -57t-26 -62t-51 -44.5t-82.5 -19.5q-40 0 -70.5 13t-48 36.5t-28.5 46t-15 53t-5 44.5t-1 33q0 84 25 136q43 93 148 93q47 0 81 -20.5t50 -46.5t25 -63.5t10 -56t1 -40.5zM290 459q-2 167 -90 167q-93 0 -93 -173q0 -165 92 -165q91 0 91 171z
M1285 221q0 -25 -1.5 -45.5t-11 -57t-26 -61.5t-51 -44.5t-82.5 -19.5q-168 0 -168 226q0 84 25 136q44 93 148 93q47 0 81 -20.5t50 -46.5t25 -63.5t10 -56t1 -40.5zM1207 223q-2 167 -90 167q-93 0 -93 -173q0 -165 92 -165q51 0 71 47q20 41 20 124zM359 6l-6 -6
q-34 1 -69 1l-3 6q38 83 142 325q0 1 26 63.5t59 143.5t52 133l6 5h67l4 -6q-6 -14 -38.5 -88t-36.5 -84q-92 -211 -203 -493z" />
    <glyph glyph-name="guilsinglleft" unicode="&#x2039;" horiz-adv-x="271" 
d="M122 465l7 5q7 0 21 -0.5t22 -0.5h41l3 -7q-39 -60 -100 -183q19 -40 56 -104q3 -6 13.5 -24.5t23 -39.5t14.5 -25l-5 -8h-79l-7 5q-43 84 -104 187v10q20 35 52 99q3 6 42 86z" />
    <glyph glyph-name="guilsinglright" unicode="&#x203a;" horiz-adv-x="271" 
d="M149 83l-7 -5q-29 0 -43 1h-41l-3 7q45 70 100 183q-19 40 -56 104q-1 1 -51 89l5 7q48 1 79 1l7 -5q31 -63 103 -187l1 -10q-4 -7 -26 -49.5t-26 -49.5q-2 -3 -42 -86z" />
    <glyph glyph-name="fraction" unicode="&#x2044;" horiz-adv-x="125" 
d="M-51 5l-6 -5q-25 1 -54 1l-4 6q63 137 142 325q32 74 72 172q6 16 39.5 100t38.5 97l7 5h55l1 -5q-174 -399 -291 -696z" />
    <glyph glyph-name="fraction" unicode="&#x2215;" horiz-adv-x="125" 
d="M-51 5l-6 -5q-25 1 -54 1l-4 6q63 137 142 325q32 74 72 172q6 16 39.5 100t38.5 97l7 5h55l1 -5q-174 -399 -291 -696z" />
    <glyph glyph-name="Euro" unicode="&#x20ac;" 
d="M401 299q20 0 52 2l6 -6q-11 -31 -17 -60l-6 -6q-26 1 -54 1h-161q16 -82 62.5 -122.5t113.5 -40.5q37 0 72 15t47.5 24.5t35.5 30.5l9 -4q-1 -22 -3 -42.5t-3 -40.5l-5 -7q-75 -54 -153 -54q-121 0 -193.5 61.5t-92.5 179.5h-32q-20 0 -36.5 -0.5t-20.5 -0.5l-6 8
q15 52 16 56l7 7q1 0 20 -0.5t32 -0.5h14q-1 13 -1 39q0 15 2 47h-23q-20 0 -36.5 -0.5t-20.5 -0.5l-6 8q12 32 16 56l7 7q1 0 20 -0.5t32 -0.5h20q24 106 95.5 169.5t186.5 63.5q93 0 159 -46l3 -8l-24 -78l-8 -4q-7 10 -18.5 21t-43 24.5t-68.5 13.5q-64 0 -109.5 -40.5
t-62.5 -115.5h220q20 0 52 2l6 -6q-15 -52 -17 -60l-6 -6q-26 1 -54 1h-210q-2 -30 -2 -47q0 -27 1 -39h186z" />
    <glyph glyph-name="trademark" unicode="&#x2122;" horiz-adv-x="687" 
d="M636 706v-332h-57l2 205l3 68l-17 -57l-67 -216h-52l-67 217l-17 55l4 -67l2 -205h-56v332h79l83 -262l81 262h79zM181 657v-283h-58v283h-107v49h270v-49h-105z" />
    <glyph glyph-name="minus" unicode="&#x2212;" horiz-adv-x="667" 
d="M667 332v-79h-667v79h667z" />
    <glyph glyph-name="fi" unicode="&#xfb01;" horiz-adv-x="542" 
d="M194 7l-5 -7q-55 0 -108 -3l-5 7q5 105 5 319q0 71 -1 115q-25 -1 -70 -1l-6 6q3 45 4 72l6 6q60 -2 64 -2l-1 66q0 31 0.5 48t9.5 49.5t26 50.5t53.5 33t88.5 15q12 0 38 -2l5 -7q-6 -55 -7 -72l-7 -5q-18 4 -27 4q-57 0 -71 -58q-5 -21 -4 -92v-30l46 1q47 1 53 1l5 -6
q-4 -57 -4 -71l-6 -6q-43 1 -92 1q0 -248 8 -400q0 -10 2 -32zM477 7l-5 -7q-36 0 -109 -3l-5 6q6 108 6 211q0 200 -10 286l5 7q66 11 108 20l10 -6q-6 -104 -6 -235q0 -178 6 -279zM479 673l-6 -7q-53 -2 -111 -8l-6 6q1 14 1 41q0 15 -2 53l7 6q26 3 111 11l6 -7
q-1 -46 0 -95z" />
    <glyph glyph-name="fl" unicode="&#xfb02;" horiz-adv-x="542" 
d="M194 7l-5 -7q-55 0 -108 -3l-5 7q5 105 5 319q0 71 -1 115q-25 -1 -70 -1l-6 6q3 45 4 72l6 6q60 -2 64 -2l-1 66q0 62 3 80q23 116 175 116q12 0 38 -2l5 -7q-6 -55 -7 -72l-7 -5q-18 4 -27 4q-42 0 -60 -30q-11 -17 -13.5 -40.5t-1.5 -79.5v-30l46 1q47 1 53 1l5 -6
q-4 -57 -4 -71l-6 -6q-43 1 -92 1q0 -248 8 -400q0 -10 2 -32zM476 7l-6 -7q-34 0 -105 -3l-5 6q5 180 5 353q0 287 -10 414l5 7q49 8 109 20l6 -6q-7 -132 -7 -395q0 -237 8 -389z" />
    </font>
</defs>
</svg>
